<?xml version="1.0" standalone="no"?>
<!DOCTYPE svg PUBLIC "-//W3C//DTD SVG 1.1//EN" "http://www.w3.org/Graphics/SVG/1.1/DTD/svg11.dtd" >
<svg xmlns="http://www.w3.org/2000/svg">
<metadata>
Created by FontForge 20120731 at Wed Mar  2 22:30:49 2016
 By Ads
</metadata>
<defs>
<font id="iconfont" horiz-adv-x="1024" >
  <font-face 
    font-family="iconfont"
    font-weight="500"
    font-stretch="normal"
    units-per-em="1024"
    panose-1="2 0 6 3 0 0 0 0 0 0"
    ascent="896"
    descent="-128"
    x-height="792"
    bbox="-0.25 -128.561 1024.38 896.75"
    underline-thickness="50"
    underline-position="-100"
    unicode-range="U+0078-E6AA"
  />
<missing-glyph horiz-adv-x="374" 
d="M34 0v682h272v-682h-272zM68 34h204v614h-204v-614z" />
    <glyph glyph-name=".notdef" horiz-adv-x="374" 
d="M34 0v682h272v-682h-272zM68 34h204v614h-204v-614z" />
    <glyph glyph-name=".null" horiz-adv-x="0" 
 />
    <glyph glyph-name="nonmarkingreturn" horiz-adv-x="341" 
 />
    <glyph glyph-name="x" unicode="x" horiz-adv-x="1001" 
d="M281 543q-27 -1 -53 -1h-83q-18 0 -36.5 -6t-32.5 -18.5t-23 -32t-9 -45.5v-76h912v41q0 16 -0.5 30t-0.5 18q0 13 -5 29t-17 29.5t-31.5 22.5t-49.5 9h-133v-97h-438v97zM955 310v-52q0 -23 0.5 -52t0.5 -58t-10.5 -47.5t-26 -30t-33 -16t-31.5 -4.5q-14 -1 -29.5 -0.5
t-29.5 0.5h-32l-45 128h-439l-44 -128h-29h-34q-20 0 -45 1q-25 0 -41 9.5t-25.5 23t-13.5 29.5t-4 30v167h911zM163 247q-12 0 -21 -8.5t-9 -21.5t9 -21.5t21 -8.5q13 0 22 8.5t9 21.5t-9 21.5t-22 8.5zM316 123q-8 -26 -14 -48q-5 -19 -10.5 -37t-7.5 -25t-3 -15t1 -14.5
t9.5 -10.5t21.5 -4h37h67h81h80h64h36q23 0 34 12t2 38q-5 13 -9.5 30.5t-9.5 34.5q-5 19 -11 39h-368zM336 498v228q0 11 2.5 23t10 21.5t20.5 15.5t34 6h188q31 0 51.5 -14.5t20.5 -52.5v-227h-327z" />
    <glyph glyph-name="uniE603" unicode="&#xe603;" 
d="M505 -95l307 307q7 8 7 18.5t-7.5 18t-18 7.5t-17.5 -8l-264 -263v834q0 11 -7.5 18.5t-18 7.5t-18 -7.5t-7.5 -18.5v-834l-264 263q-7 8 -17.5 8t-18 -7.5t-7.5 -18.5q0 -5 2 -9.5t5 -8.5l307 -307q8 -7 18.5 -7t18.5 7z" />
    <glyph glyph-name="uniE604" unicode="&#xe604;" 
d="M830 14.5q69 68.5 106 157.5t37 186q0 65 -16.5 126.5t-48.5 117t-78 100.5q-34 35 -74 61.5t-83.5 44.5t-90.5 27.5t-96 9.5q-38 0 -76 -6t-74 -18t-70 -29t-65 -39.5t-59 -50.5q-68 -69 -105 -157.5t-37 -186t37 -186.5t105.5 -157.5t157.5 -105.5t186.5 -37t186 37
t157.5 105.5zM51 358.5q0 88.5 34.5 169t93 139t139 93t168.5 34.5q59 0 115.5 -16t104.5 -44t88 -68t68 -88t44 -104.5t16 -115.5q0 -180 -128 -307.5t-308 -127.5q-88 0 -168.5 34.5t-139 93t-93 139t-34.5 169zM504 59l205 205q8 7 8 17.5t-8 18.5q-5 5 -11.5 6.5t-13 0
t-11.5 -6.5l-161 -161v527q0 10 -7.5 17.5t-18 7.5t-18 -7.5t-7.5 -17.5v-527l-161 161q-8 7 -18.5 7t-18 -7.5t-7.5 -17.5q0 -5 2 -10t6 -8l204 -205q8 -8 18.5 -8t18.5 8h-1z" />
    <glyph glyph-name="uniE605" unicode="&#xe605;" 
d="M33 377l307 307q8 7 18.5 7t17.5 -7q5 -5 7 -11.5t0 -13.5t-7 -11l-263 -264h834q11 0 18.5 -7.5t7.5 -18t-7.5 -18t-18.5 -7.5h-834l263 -264q8 -7 8 -17.5t-8 -18.5q-3 -4 -8 -5.5t-10 -1.5q-10 1 -18 7l-307 307q-7 8 -7 18.5t7 18.5z" />
    <glyph glyph-name="uniE606" unicode="&#xe606;" 
d="M142.5 702q68.5 69 157.5 106t186.5 37t186 -37t157.5 -106t106 -157.5t37 -186t-37 -186.5t-106 -157.5t-157.5 -105.5t-186 -37t-186.5 37t-157.5 105.5t-105.5 157.5t-37 186.5t37 186t105.5 157.5zM486.5 -77q88.5 0 169 34.5t139 93t93 139t34.5 168.5
q0 180 -128 308t-308 128q-59 0 -115 -16t-104 -44t-88 -68t-68 -88t-44 -104.5t-16 -115.5q0 -88 34.5 -168.5t93 -139t139 -93t169 -34.5zM187 376l205 205q3 4 8 6t9.5 2t9.5 -2t9 -6q5 -5 6.5 -11.5t0 -13t-6.5 -11.5l-161 -161h527q10 0 17.5 -7.5t7.5 -18t-7.5 -18
t-17.5 -7.5h-527l161 -161q7 -8 7 -18.5t-7.5 -18t-17.5 -7.5q-5 0 -10 2t-8 6l-205 204q-8 8 -8 18.5t8 18.5v-1z" />
    <glyph glyph-name="uniE607" unicode="&#xe607;" 
d="M991 377l-307 307q-8 7 -18.5 7t-18 -7.5t-7.5 -18t8 -17.5l263 -264h-834q-7 0 -13 -3.5t-9.5 -9.5t-3.5 -13q0 -10 7.5 -17.5t18.5 -7.5h834l-263 -264q-4 -3 -6 -8t-2 -10t2 -9.5t6 -8.5q7 -7 18 -7q10 1 18 7l307 307q7 8 7 18.5t-7 18.5z" />
    <glyph glyph-name="uniE608" unicode="&#xe608;" 
d="M830 702q-69 69 -157.5 106t-186 37t-186.5 -37t-157.5 -106t-105.5 -157.5t-37 -186t37 -186.5t105.5 -157.5t157.5 -105.5t186.5 -37t186 37t157.5 105.5t106 157.5t37 186.5t-37 186t-106 157.5zM486 -77q-88 0 -168.5 34.5t-139 93t-93 139t-34.5 169t34.5 169
t93 139t139 93t168.5 34.5q59 0 115.5 -16t104.5 -44t88 -68t68 -88t44 -104.5t16 -115.5q0 -166 -112 -290q-107 -120 -266 -141q-29 -4 -58 -4zM786 376l-205 205q-7 8 -17.5 8t-18 -7.5t-7.5 -18t7 -18.5l161 -161h-527q-4 0 -8 -1.5t-7 -3.5t-5.5 -5.5t-3.5 -7t-1 -8.5
q0 -10 7.5 -17.5t17.5 -7.5h527l-161 -161q-7 -8 -7 -18.5t7.5 -18t17.5 -7.5q3 0 6.5 1t6.5 2.5t5 4.5l205 204q8 8 8 18.5t-8 18.5v-1z" />
    <glyph glyph-name="uniE609" unicode="&#xe609;" 
d="M468 863l-307 -307q-7 -8 -7 -18.5t7 -17.5q15 -16 33 -3q2 1 3 3l264 263v-834q0 -11 7.5 -18.5t17.5 -7.5q5 0 8.5 1.5t7 4t5.5 5.5t3.5 7t1.5 8v834l263 -263q5 -5 12 -7t13.5 0t11.5 7q7 7 7 18q-1 10 -7 18l-308 307q-3 3 -6.5 5t-7.5 2.5t-7.5 0t-7.5 -2.5t-7 -5z
" />
    <glyph glyph-name="uniE60A" unicode="&#xe60a;" 
d="M142 702q-68 -69 -105 -157.5t-37 -186t37 -186.5t105.5 -157.5t157.5 -105.5t186.5 -37t186 37t157.5 105.5t106 157.5t37 186.5t-37 186t-106 157.5t-157.5 106t-186.5 37q-38 0 -76 -6t-74 -18t-70 -29t-65 -39.5t-59 -50.5zM922 358q0 -59 -16 -115t-44 -104t-68 -88
t-88 -68t-104.5 -44t-115.5 -16q-88 0 -168.5 34.5t-139 93t-93 139t-34.5 168.5q0 71 22 137.5t62.5 120t94 94t120 62.5t136.5 22q167 0 291 -112q120 -107 141 -266q4 -29 4 -58zM468 658l-204 -205q-8 -7 -8 -17.5t8 -18.5q4 -5 11 -6.5t13.5 0t11.5 6.5l161 161v-527
q0 -10 7.5 -17.5t18 -7.5t18 7.5t7.5 17.5v527l161 -161q4 -4 8.5 -5.5t9.5 -1.5t10 1.5t8 5.5q3 3 4.5 6t2.5 6t1 6q0 5 -2 10t-6 8l-205 205q-3 4 -8 6t-9.5 2t-9.5 -2t-9 -6z" />
    <glyph glyph-name="uniE60B" unicode="&#xe60b;" 
d="M281.5 435q-31.5 0 -54 22.5t-22.5 54.5t22.5 54.5t54 22.5t54.5 -22.5t23 -54.5t-23 -54.5t-54.5 -22.5zM281.5 538q-10.5 0 -18 -7.5t-7.5 -18.5q0 -7 3.5 -13t9.5 -9.5t13 -3.5t12.5 3.5t9 9.5t3.5 13q0 11 -7.5 18.5t-18 7.5zM486 26q-10 0 -17.5 7.5t-7.5 17.5v154
q0 29 19.5 55t48.5 35l76 22l-167 111l-87 -88q-4 -3 -8.5 -5t-9.5 -2h-103q-10 0 -17.5 7.5t-7.5 17.5q0 6 2 10.5t5.5 8t8 5.5t9.5 2h92l95 95q15 15 32 3l188 -125q31 -21 27 -49.5t-41 -38.5l-80 -24q-12 -3 -21.5 -15.5t-9.5 -24.5v-154q0 -10 -7.5 -17.5t-18.5 -7.5z
M768 -128q-85 0 -145 60t-60 145t60 145t145 60t145 -60t60 -145t-60 -145t-145 -60zM768 230q-42 0 -77 -20.5t-56 -56t-21 -76.5q0 -64 45 -109t109 -45q42 0 77 20.5t56 56t21 77.5q0 63 -45 108t-109 45zM204.5 -128q-84.5 0 -144.5 60t-60 144.5t60 144.5t144.5 60
t144.5 -60t60 -144.5t-60 -144.5t-144.5 -60zM205 230q-42 0 -77.5 -20.5t-56 -56t-20.5 -76.5q0 -64 45 -109t108.5 -45t108.5 45t45 109q0 31 -12 59.5t-32.5 49t-49 32.5t-59.5 12z" />
    <glyph glyph-name="uniE60C" unicode="&#xe60c;" 
d="M512 435h-128q-7 0 -13 3.5t-9.5 9.5t-3.5 13v153q0 11 7.5 18.5t18.5 7.5h128q42 0 72 -30t30 -72.5t-30 -72.5t-72 -30zM410 486h102q21 0 36 15t15 36.5t-15 36.5t-36 15h-102v-103zM563 128h-179q-3 0 -6.5 1t-6.5 2.5t-5 4.5l-4 4q-2 3 -3 6.5t-1 7.5v153q0 5 2 10
t5.5 8.5t8.5 5.5t10 2h179q17 0 32.5 -5.5t28 -15t22 -22t15 -28t5.5 -32.5q0 -42 -30 -72t-73 -30zM410 179h153q21 0 36 15t15 36.5t-15 36.5t-36 15h-153v-103zM563 -26h-281q-32 0 -54.5 22.5t-22.5 54.5v666q0 15 6 29.5t16.5 24.5t24.5 16.5t30 6.5h230
q52 0 99.5 -20.5t81.5 -55t54.5 -81.5t20.5 -99q0 -16 -2 -31.5t-5.5 -31t-9.5 -30t-13 -28.5q81 -75 81 -187q0 -105 -75 -180.5t-181 -75.5zM282 742q-11 0 -18.5 -7.5t-7.5 -17.5v-666q0 -10 7.5 -17.5t18.5 -7.5h281q85 0 145 60t60 144q0 19 -3.5 37.5t-10 35.5t-16 33
t-22 30t-27.5 26q-8 6 -9.5 16t4.5 19q8 12 14 25.5t10.5 27.5t6.5 28.5t2 29.5q0 84 -60 144t-145 60h-230z" />
    <glyph glyph-name="uniE60D" unicode="&#xe60d;" 
d="M742 -26h-512q-4 0 -8 1.5t-7 4t-5.5 5.5t-3.5 7t-1 8q0 7 3.5 13t9 9.5t12.5 3.5h512q11 0 18.5 -7.5t7.5 -18.5q0 -5 -2 -10t-5.5 -8.5t-8 -5.5t-10.5 -2zM845 742q-11 0 -18.5 -7.5t-7.5 -17.5v-768q0 -11 -7.5 -18.5t-17.5 -7.5h-564q-31 0 -53.5 22.5t-22.5 54.5
t22.5 54.5t53.5 22.5h461q32 0 54.5 22.5t22.5 54.5v614q0 32 -22.5 54.5t-54.5 22.5h-512q-21 0 -38.5 -10.5t-28 -28t-10.5 -38.5v-768q0 -53 37.5 -90.5t90.5 -37.5h564q12 0 24 4t21 11t16.5 16.5t11 21t3.5 24.5v768q0 5 -2 9.5t-5.5 8t-8 5.5t-9.5 2zM179 794h512
q11 0 18.5 -7.5t7.5 -18.5v-614q0 -5 -1.5 -8.5t-4 -7t-5.5 -5.5t-7 -3.5t-8 -1.5h-461q-10 0 -20.5 -1.5t-20 -5t-18.5 -8.5t-17 -11v666q0 3 0.5 6t1.5 5.5t3 4.5l4 4q2 2 4.5 3t5.5 2t6 1z" />
    <glyph glyph-name="uniE60E" unicode="&#xe60e;" 
d="M794 -128q-12 0 -20 9l-288 336l-287 -336q-12 -14 -28.5 -7.5t-16.5 24.5v921q0 11 7.5 18.5t17.5 7.5h615q10 0 17.5 -7.5t7.5 -18.5v-921q0 -18 -17 -24q-4 -2 -8 -2zM486 282q6 0 11 -2.5t9 -6.5l262 -306v827h-563v-827l262 306q8 9 19 9z" />
    <glyph glyph-name="uniE60F" unicode="&#xe60f;" 
d="M947 640h-230v77q0 15 -6 29.5t-16.5 24.5t-24.5 16.5t-30 6.5h-256q-21 0 -38.5 -10.5t-28 -28t-10.5 -38.5v-77h-230q-32 0 -54.5 -22.5t-22.5 -54.5v-563q0 -32 22.5 -54.5t54.5 -22.5h870q32 0 54.5 22.5t22.5 54.5v563q0 32 -22.5 54.5t-54.5 22.5zM358 717
q0 10 7.5 17.5t18.5 7.5h256q11 0 18.5 -7.5t7.5 -17.5v-77h-308v77zM77 589h870q5 0 10 -2t8.5 -5.5t5.5 -8.5t2 -10v-384h-103v26q0 10 -7.5 17.5t-17.5 7.5h-103q-3 0 -6.5 -0.5t-5.5 -2.5l-6 -4q-2 -2 -3.5 -5t-2.5 -6.5t-1 -6.5v-26h-410v26q0 10 -7.5 17.5t-17.5 7.5
h-103q-10 0 -17.5 -7.5t-7.5 -17.5v-26h-103v384q0 11 7.5 18.5t18.5 7.5zM819 179v-51h-51v51h51zM256 179v-51h-51v51h51zM947 -26h-870q-11 0 -18.5 7.5t-7.5 18.5v128h103v-26q0 -10 7.5 -17.5t17.5 -7.5h103q5 0 9.5 2t8 5.5t5.5 8t2 9.5v26h410v-26q0 -5 2 -9.5
t5.5 -8t8 -5.5t9.5 -2h103q10 0 17.5 7.5t7.5 17.5v26h103v-128q0 -11 -7.5 -18.5t-18.5 -7.5z" />
    <glyph glyph-name="uniE610" unicode="&#xe610;" horiz-adv-x="1025" 
d="M26 -77q-20 0 -25 19t11 29q98 58 136 163q-71 54 -109.5 125.5t-38.5 150.5t39 151q13 23 29 44.5t35 41t42 36.5q68 54 156.5 82.5t184.5 28.5q49 0 95.5 -7.5t89.5 -21.5t83 -34.5t74 -47.5q17 -13 32 -27t28.5 -29.5t24.5 -31.5t20 -34q40 -72 40 -151.5t-40 -151.5
q-37 -69 -105 -122q-69 -53 -157 -81.5t-185 -28.5q-39 0 -78 4.5t-76 14.5q-55 -36 -112 -65q-115 -57 -194 -57zM486 742q-59 0 -115 -12t-104 -33.5t-88 -52t-68 -67t-44 -79.5t-16 -88q0 -70 37 -134.5t104 -111.5q15 -10 10 -27q-20 -78 -81 -143q93 32 192 100
q10 7 21 4q74 -21 152 -21q59 0 115.5 12t104.5 33.5t88 52t68 67t44 79.5t16 89q0 54 -22 104.5t-62.5 91.5t-94 72t-120 47.5t-137.5 16.5z" />
    <glyph glyph-name="uniE611" unicode="&#xe611;" 
d="M896 282h-78q-4 84 -40 158q41 12 66.5 46t25.5 77q0 5 -2 10t-5.5 8.5t-8 5.5t-9.5 2q-11 0 -18.5 -7.5t-7.5 -18.5q0 -19 -8.5 -35.5t-24 -27.5t-34.5 -13q-13 21 -29 39q-4 5 -8.5 9.5t-8.5 9.5q11 33 11 69q0 63 -31 116t-84 84t-116 31q-95 0 -162.5 -67.5
t-67.5 -163.5q0 -17 2.5 -34.5t8.5 -34.5q-10 -10 -17 -19q-16 -18 -30 -39q-18 2 -33.5 13t-24 27.5t-8.5 35.5q0 4 -1 7t-3 6t-4 5.5t-5 4t-6.5 2.5t-6.5 1q-11 0 -18.5 -7.5t-7.5 -18.5q0 -43 26 -77t66 -46q-17 -36 -27 -76t-13 -82h-77q-7 0 -13 -3.5t-9.5 -9.5
t-3.5 -13q0 -4 1.5 -8t3.5 -7t5.5 -5.5t7.5 -4t8 -1.5h77q5 -84 40 -158q-40 -12 -66 -46t-26 -77q0 -11 7.5 -18.5t18.5 -7.5t18.5 7.5t7.5 18.5q0 29 19 50.5t47 25.5q7 -10 14.5 -20t15.5 -19q47 -55 108 -84.5t128.5 -29.5t128.5 29.5t108 84.5q8 9 15 19l14 20
q29 -4 48 -25.5t19 -50.5q0 -5 2 -10t5.5 -8.5t8 -5.5t10 -2t10 2t8 5.5t5.5 8.5t2 10q0 43 -25.5 77t-66.5 46q36 73 40 158h78q10 0 17.5 7.5t7.5 18.5q0 5 -2 10t-5 8.5t-8 5.5t-10 2zM486.5 794q48.5 0 90 -24t65.5 -65.5t24 -90.5q0 -16 -3 -32q-81 58 -177 58
t-176 -58l-2 16q-1 8 -1 16q0 49 24 90.5t65.5 65.5t90 24zM205 256q0 85 34 158.5t92.5 119.5t129.5 53v-662q-108 11 -182 106.5t-74 224.5zM512 -75v662q108 -11 182 -106.5t74 -224.5t-74 -224.5t-182 -106.5z" />
    <glyph glyph-name="uniE612" unicode="&#xe612;" horiz-adv-x="1025" 
d="M993 737q-20 61 -45.5 84.5t-51.5 23.5h-2q-28 -1 -154 -38q-84 -24 -137 -38.5t-145 -35.5t-181 -31.5t-175 -10.5q-21 0 -40 -13.5t-32.5 -37.5t-21.5 -57t-8 -71q0 -77 29.5 -128t72.5 -51h10h10q4 0 8.5 -0.5t9.5 -0.5h10h9l85 -340q8 -29 33.5 -49t55.5 -20h67
q35 0 51.5 25.5t3.5 57.5l-132 310q160 -24 417 -99q126 -37 154 -38h2q26 0 51.5 23.5t45.5 84.5q31 94 31 225t-31 225zM819 512q0 39 4 77q12 -2 23.5 -12.5t17.5 -27.5t6 -37q0 -30 -14 -52.5t-33 -24.5q-2 13 -2.5 25.5t-1 25.5t-0.5 26zM51 512q0 55 17 91.5t34 36.5
q83 0 173 10q-19 -60 -19 -138t19 -138q-90 10 -173 10q-17 0 -34 36.5t-17 91.5zM408 -14q3 -7 1 -9l-9 -3h-67q-8 0 -16.5 4.5t-14.5 11.5t-8 15l-81 323q26 -2 51 -5zM332 366q-25 57 -25 146q0 90 25 146q164 24 423 100l60 18q-3 -6 -5.5 -12t-5 -12.5t-5.5 -14.5
q-4 -13 -8 -27t-7 -29t-5.5 -31t-4.5 -33t-3.5 -34t-2 -35t-0.5 -36q0 -64 8 -122t23 -103q7 -22 16 -39q-9 3 -20 6t-19.5 5.5t-20.5 6.5q-78 23 -126.5 36t-134.5 33t-162 31zM944 303q-7 -20 -14.5 -35.5t-14 -23t-11 -11t-8.5 -3.5q-5 0 -12 6t-17 23t-19 44
q-12 36 -19 82q18 2 35 12t30 27q28 37 28 88q0 16 -3.5 32t-9.5 30t-15 26q-6 8 -13.5 15t-16 12t-17.5 8t-18 4q3 23 8 43.5t11 38.5q7 20 14.5 35.5t14 23t11.5 11t8 3.5t6.5 -2t8.5 -7.5t10.5 -13t11.5 -20.5t11 -30q29 -86 29 -209q0 -59 -7.5 -113t-21.5 -96z" />
    <glyph glyph-name="uniE613" unicode="&#xe613;" 
d="M281.5 77q-31.5 0 -54 22.5t-22.5 54t22.5 54t54.5 22.5q20 0 38 -10t28 -28t10 -38q0 -32 -22.5 -54.5t-54 -22.5zM282 179q-6 0 -10.5 -2t-8 -5.5t-5.5 -8t-2 -9.5q0 -11 7.5 -18.5t18.5 -7.5q3 0 6.5 1t6 2.5t5 4t4 5t2.5 6t1 7.5q0 10 -7.5 17.5t-17.5 7.5zM742.5 77
q-15.5 0 -30 6t-24.5 16.5t-16 24.5t-6 30q0 20 10 38t28 28t38 10q16 0 30 -6t24.5 -16t16.5 -24.5t6 -30t-6 -29.5t-16.5 -24.5t-24.5 -16.5t-29.5 -6zM742 179q-3 0 -6.5 -1t-6 -2.5t-5 -4t-4 -5t-2.5 -6t-1 -6.5q0 -6 2 -10.5t5.5 -8t8 -5.5t9.5 -2q4 0 7.5 1t6 2.5t5 4
t4 5t2.5 6t1 7.5q0 5 -2 9.5t-5.5 8t-8 5.5t-10.5 2zM691 640h-358q-5 0 -10 2t-8.5 5.5t-5.5 8t-2 10.5q0 10 7.5 17.5t18.5 7.5h358q5 0 10 -2t8.5 -5.5t5.5 -8t2 -9.5q0 -11 -7.5 -18.5t-18.5 -7.5zM794 589h-564q-4 0 -8 -1.5t-7 -4t-5.5 -5.5t-3.5 -7t-1 -8v-256
q0 -10 7.5 -17.5t17.5 -7.5h256h1h255h1h51q10 0 17.5 7.5t7.5 17.5v256q0 11 -7.5 18.5t-17.5 7.5zM256 538h512v-205h-18l-147 98q-6 4 -12.5 4.5t-13 -2.5t-9.5 -9q-6 -9 -4 -19.5t11 -16.5l83 -55h-164l-147 98q-6 4 -12.5 4.5t-13 -2.5t-10 -9t-4 -13t2.5 -13t9 -10
l83 -55h-146v205zM800 805q-106 40 -288 40t-288 -40q-122 -47 -122 -139v-564q0 -46 29.5 -81t73.5 -44v-54q0 -21 15 -36t36 -15h51q21 0 36 15t15 36v51h308v-51q0 -21 15 -36t36 -15h51q14 0 25.5 7t18.5 18.5t7 25.5v54q44 9 73.5 44t29.5 81v564q0 92 -122 139z
M307 -77h-51v51h51v-51zM717 -77v51h51v-51h-51zM870 102q0 -15 -6 -29.5t-16 -24.5t-24.5 -16t-29.5 -6h-564q-31 0 -53.5 22.5t-22.5 53.5v564q0 57 89 91q96 37 269 37q85 0 153.5 -9.5t115.5 -27.5q45 -17 67 -40t22 -51v-564z" />
    <glyph glyph-name="uniE614" unicode="&#xe614;" 
d="M947 794h-128v25q0 5 -2 10t-5.5 8.5t-8 5.5t-9.5 2q-11 0 -18.5 -7.5t-7.5 -18.5v-25h-512v25q0 4 -1 7t-2.5 6t-4 5.5t-5 4t-6 2.5t-7.5 1q-10 0 -17.5 -7.5t-7.5 -18.5v-25h-128q-21 0 -38.5 -10.5t-28 -28t-10.5 -38.5v-717q0 -32 22.5 -54.5t54.5 -22.5h870
q32 0 54.5 22.5t22.5 54.5v717q0 15 -6 29.5t-16.5 24.5t-24.5 16.5t-30 6.5zM77 742h128v-76q0 -6 2 -10.5t5.5 -8t8 -5.5t10 -2t10 2t8 5.5t5.5 8t2 10.5v76h512v-76q0 -6 2 -10.5t5.5 -8t8 -5.5t10.5 -2q4 0 8 1.5t7 3.5t5.5 5.5t3.5 7t1 8.5v76h128q11 0 18.5 -7.5
t7.5 -17.5v-128h-922v128q7 20 26 25zM947 -26h-870q-11 0 -18.5 7.5t-7.5 18.5v538h922v-538q0 -11 -7.5 -18.5t-18.5 -7.5zM384 384h-51q-11 0 -18.5 7.5t-7.5 18.5q0 7 3.5 12.5t9.5 9t13 3.5h51q11 0 18.5 -7.5t7.5 -18t-7.5 -18t-18.5 -7.5zM538 384h-52
q-10 0 -17.5 7.5t-7.5 18.5q0 7 3.5 12.5t9 9t12.5 3.5h52q10 0 17.5 -7.5t7.5 -17.5q0 -6 -2 -10.5t-5.5 -8t-8 -5.5t-9.5 -2zM691 384h-51q-11 0 -18.5 7.5t-7.5 18t7.5 18t18.5 7.5h51q11 0 18.5 -7.5t7.5 -18t-7.5 -18t-18.5 -7.5zM845 384h-51q-11 0 -18.5 7.5t-7.5 18
t7.5 18t18.5 7.5h51q10 0 17.5 -7.5t7.5 -18t-7.5 -18t-17.5 -7.5zM230 282h-51q-3 0 -6.5 0.5t-6.5 2.5t-5 4t-4 5t-2.5 6.5t-0.5 6.5q0 11 7.5 18.5t17.5 7.5h51q5 0 8.5 -1.5t7 -4t5.5 -5.5t3.5 -7t1.5 -8q0 -7 -3.5 -13t-9.5 -9t-13 -3zM384 282h-51q-11 0 -18.5 7.5
t-7.5 17.5q0 7 3.5 13t9.5 9.5t13 3.5h51q11 0 18.5 -7.5t7.5 -18t-7.5 -18t-18.5 -7.5zM538 282h-52q-10 0 -17.5 7.5t-7.5 17.5q0 7 3.5 13t9 9.5t12.5 3.5h52q10 0 17.5 -7.5t7.5 -18.5q0 -5 -2 -9.5t-5.5 -8t-8 -5.5t-9.5 -2zM691 282h-51q-11 0 -18.5 7.5t-7.5 18
t7.5 18t18.5 7.5h51q11 0 18.5 -7.5t7.5 -18t-7.5 -18t-18.5 -7.5zM845 282h-51q-11 0 -18.5 7.5t-7.5 18t7.5 18t18.5 7.5h51q10 0 17.5 -7.5t7.5 -18t-7.5 -18t-17.5 -7.5zM230 179h-51q-3 0 -6.5 1t-6.5 2.5t-5 4t-4 5.5t-2.5 6t-0.5 7q0 10 7.5 17.5t17.5 7.5h51
q4 0 7.5 -0.5t6.5 -2.5l4 -4q3 -2 4.5 -5t2.5 -6.5t1 -6.5q0 -7 -3.5 -13t-9.5 -9.5t-13 -3.5zM384 179h-51q-5 0 -10 2t-8.5 5.5t-5.5 8.5t-2 10q0 7 3.5 13t9.5 9t13 3h51q3 0 6.5 -0.5t6.5 -2.5t5 -4t4 -5t3 -6.5t1 -6.5q0 -11 -7.5 -18.5t-18.5 -7.5zM538 179h-52
q-5 0 -9.5 2t-8 5.5t-5.5 8.5t-2 10q0 10 7.5 17.5t17.5 7.5h52q3 0 6.5 -0.5t5.5 -2.5l6 -4q2 -2 3.5 -5t2.5 -6.5t1 -6.5q0 -5 -2 -10t-5.5 -8.5t-8 -5.5t-9.5 -2zM691 179h-51q-11 0 -18.5 7.5t-7.5 18t7.5 18t18.5 7.5h51q4 0 7 -0.5t6 -2.5t5.5 -4t4 -5t2.5 -6.5
t1 -6.5q0 -11 -7.5 -18.5t-18.5 -7.5zM845 179h-51q-11 0 -18.5 7.5t-7.5 18t7.5 18t18.5 7.5h51q3 0 6.5 -0.5t6.5 -2.5t5 -4t4 -5t2.5 -6.5t0.5 -6.5q0 -11 -7.5 -18.5t-17.5 -7.5zM230 77h-51q-4 0 -8 1t-7 3.5t-5.5 5.5t-3.5 7t-1 8q0 11 7.5 18.5t17.5 7.5h51
q5 0 8.5 -1.5t7 -3.5t5.5 -5.5t3.5 -7t1.5 -8.5q0 -7 -3.5 -12.5t-9.5 -9t-13 -3.5zM384 77h-51q-11 0 -18.5 7.5t-7.5 17.5q0 7 3.5 13t9.5 9.5t13 3.5h51q11 0 18.5 -7.5t7.5 -18t-7.5 -18t-18.5 -7.5zM538 77h-52q-10 0 -17.5 7.5t-7.5 18t7.5 18t17.5 7.5h52
q10 0 17.5 -7.5t7.5 -18.5q0 -5 -2 -9.5t-5.5 -8t-8 -5.5t-9.5 -2zM691 77h-51q-11 0 -18.5 7.5t-7.5 18t7.5 18t18.5 7.5h51q11 0 18.5 -7.5t7.5 -18t-7.5 -18t-18.5 -7.5zM845 77h-51q-11 0 -18.5 7.5t-7.5 18t7.5 18t18.5 7.5h51q10 0 17.5 -7.5t7.5 -18t-7.5 -18
t-17.5 -7.5z" />
    <glyph glyph-name="uniE615" unicode="&#xe615;" 
d="M486 128q-95 0 -162.5 67.5t-67.5 163t67.5 163t163 67.5t163 -67.5t67.5 -163.5q0 -62 -31 -115t-84 -84t-116 -31zM486.5 538q-74.5 0 -127 -52.5t-52.5 -127t52.5 -127t126.5 -52.5q37 0 70 14.5t57 38.5t38.5 57t14.5 69q0 75 -52.5 127.5t-127 52.5zM896 -26h-819
q-32 0 -54.5 22.5t-22.5 54.5v512q0 32 22.5 54.5t54.5 22.5h77q7 0 17 2.5t19.5 6.5t18 9t14.5 11l30 30q19 18 49 30.5t56 12.5h256q27 0 57 -12.5t49 -30.5l30 -30q11 -12 32 -20.5t37 -8.5h77q13 0 24.5 -4t21 -11t16.5 -16.5t11 -21t4 -24.5v-512q0 -21 -10.5 -38.5
t-28 -28t-38.5 -10.5zM77 589q-5 0 -10 -2t-8.5 -5.5t-5.5 -8.5t-2 -10v-512q0 -10 7.5 -17.5t18.5 -7.5h819q11 0 18.5 7.5t7.5 17.5v512q0 11 -7.5 18.5t-18.5 7.5h-77q-26 0 -56.5 12.5t-48.5 31.5l-30 30q-12 11 -33 19.5t-37 8.5h-256q-7 0 -17 -2.5t-19.5 -6t-18 -9
t-14.5 -10.5l-30 -30q-7 -8 -17 -14.5t-21 -12t-22.5 -9.5t-23 -6t-22.5 -2h-76z" />
    <glyph glyph-name="uniE616" unicode="&#xe616;" horiz-adv-x="1025" 
d="M820 77h-180q-11 0 -18.5 7.5t-7.5 17.5q0 6 2.5 10.5t5.5 8t8 5.5t10 2h180q63 0 108 45t45 108.5t-45 108.5t-108 45q-28 0 -53 -10q-8 -3 -16.5 0t-13.5 10.5t-4 16.5t7 15q14 14 21 32.5t7 38.5q0 42 -30 72t-72 30q-52 0 -83 -42q-6 -8 -10 -16.5t-6.5 -18
t-3.5 -19.5q0 -8 -5 -14.5t-13 -8.5q-18 -5 -28 10q-9 12 -18 23q-37 41 -87 63.5t-105 22.5q-69 0 -128 -34.5t-93.5 -93.5t-34.5 -128q0 -106 75 -181t181 -75h128q11 0 18.5 -7.5t7.5 -18t-7.5 -18t-18.5 -7.5h-128q-127 0 -217 90t-90 217t90 217t217 90
q62 0 118.5 -23.5t99.5 -67.5q7 15 17 29q22 29 54.5 45.5t69.5 16.5q15 0 30.5 -3t29 -9t26 -14.5t23 -18.5t18.5 -22.5t14 -26t9 -29t3 -30.5q0 -14 -2 -27t-7 -26q4 1 10 1q84 0 144 -60t60 -144.5t-60 -144.5t-144 -60zM658 274l-102 103q-8 7 -18.5 7t-17.5 -7
l-103 -103q-7 -7 -7 -18t7.5 -18.5t18 -7.5t17.5 8l59 59v-195q0 -5 2 -9.5t5.5 -8t8 -5.5t10.5 -2q10 0 17.5 7.5t7.5 17.5v195l59 -59q4 -4 8.5 -6t9.5 -2q11 1 18 8q15 15 3 33z" />
    <glyph glyph-name="uniE617" unicode="&#xe617;" 
d="M980 23q-19 0 -38 15l-176 140q-21 17 -35 47t-14 57v153q0 27 14 56.5t35 46.5l176 141q19 15 38 15q11 0 21 -5.5t16.5 -18t6.5 -30.5v-563q0 -5 -0.5 -10t-2 -9.5t-3 -8.5t-4.5 -8q-6 -8 -15 -13t-19 -5zM973 638l-175 -140q-12 -9 -21 -28.5t-9 -34.5v-153
q0 -10 4 -22.5t11.5 -23.5t14.5 -18l175 -139v559zM589 26h-512q-32 0 -54.5 22.5t-22.5 53.5v512q0 16 6 30t16.5 24.5t24.5 16.5t30 6h512q15 0 29.5 -6t24.5 -16.5t16.5 -24.5t6.5 -30v-512q0 -31 -22.5 -53.5t-54.5 -22.5zM77 640q-5 0 -10 -2t-8.5 -5.5t-5.5 -8
t-2 -10.5v-512q0 -10 7.5 -17.5t18.5 -7.5h512q10 0 17.5 7.5t7.5 17.5v512q0 11 -7.5 18.5t-17.5 7.5h-512z" />
    <glyph glyph-name="uniE618" unicode="&#xe618;" 
d="M281.5 77q-31.5 0 -54 22.5t-22.5 54t22.5 54t54.5 22.5q20 0 38 -10t28 -28t10 -38q0 -32 -22.5 -54.5t-54 -22.5zM282 179q-6 0 -10.5 -2t-8 -5.5t-5.5 -8t-2 -9.5q0 -11 7.5 -18.5t18.5 -7.5q3 0 6.5 1t6 2.5t5 4t4 5t2.5 6t1 7.5q0 10 -7.5 17.5t-17.5 7.5zM742.5 77
q-15.5 0 -30 6t-24.5 16.5t-16 24.5t-6 30q0 20 10 38t28 28t38 10q16 0 30 -6t24.5 -16t16.5 -24.5t6 -30t-6 -29.5t-16.5 -24.5t-24.5 -16.5t-29.5 -6zM742 179q-3 0 -6.5 -1t-6 -2.5t-5 -4t-4 -5t-2.5 -6t-1 -6.5q0 -6 2 -10.5t5.5 -8t8 -5.5t9.5 -2q4 0 7.5 1t6 2.5t5 4
t4 5t2.5 6t1 7.5q0 5 -2 9.5t-5.5 8t-8 5.5t-10.5 2zM868 286q-1 10 -3 19.5t-4.5 24.5t-5.5 29t-6.5 30.5t-7 31.5t-7.5 29.5t-8.5 26.5t-9.5 21q-23 47 -119 71q-38 9 -86 14.5t-99 5.5q-106 0 -185 -20q-96 -24 -119 -71q-26 -51 -52 -212q-27 -18 -40.5 -44.5
t-13.5 -62.5v-128q0 -25 14.5 -44.5t37.5 -27.5v-56q0 -21 15 -36t36 -15h51q21 0 36 15t15 36v51h410v-51q0 -21 15 -36t36 -15h51q14 0 26 7t18.5 18.5t6.5 25.5v56q23 8 37.5 27.5t14.5 44.5v128q0 71 -54 107zM253 475q13 25 83.5 44t175.5 19t175.5 -19t83.5 -44
q10 -20 20.5 -66t20.5 -97l-16 4q-19 5 -44 8l-148 106q-5 3 -10 4.5t-9.5 0.5t-9 -3.5t-7.5 -7.5q-6 -8 -4.5 -18.5t10.5 -16.5l80 -58q-43 2 -142 2h-18l-147 98q-6 4 -12.5 4.5t-13 -2.5t-10.5 -9q-1 -3 -2 -5.5t-1.5 -5.5t-0.5 -6t1 -5.5t2.5 -5t3.5 -4.5t5 -4l84 -56
q-18 0 -34 -0.5t-32 -1.5t-30.5 -2t-28 -3t-26.5 -4t-24 -5l-16 -4q23 127 41 163zM256 -77h-51v51h51v-51zM768 -77v51h51v-51h-51zM870 51q0 -10 -7.5 -17.5t-17.5 -7.5h-666q-4 0 -8 1t-7 3.5t-5.5 5.5t-3.5 7t-1 8v128q0 36 20 56t66 31q23 6 51.5 9t69 4.5t68.5 2
t83 0.5q73 0 110 -0.5t84.5 -4.5t77.5 -11q31 -7 50 -18.5t27.5 -28t8.5 -40.5v-128z" />
    <glyph glyph-name="uniE619" unicode="&#xe619;" 
d="M409.5 -128q-42.5 0 -72.5 30t-30 72.5t30 72.5t72.5 30t72.5 -30t30 -72.5t-30 -72.5t-72.5 -30zM410 26q-14 0 -26 -7t-19 -19t-7 -26q0 -21 15 -36t36.5 -15t36.5 15t15 36.5t-15 36.5t-36 15zM768 -128q-42 0 -72 30t-30 72.5t30 72.5t72 30t72 -30t30 -72.5
t-30 -72.5t-72 -30zM768 26q-21 0 -36 -15t-15 -36.5t15 -36.5t36 -15t36 15t15 36.5t-15 36.5t-36 15zM898 667q-20 24 -53 24h-627l-5 31q-3 15 -10.5 28t-19 22.5t-26 15.5t-29.5 6h-51q-7 0 -13 -3.5t-9.5 -9.5t-3.5 -13t3.5 -13t9.5 -9.5t13 -3.5h51q12 0 22 -8.5
t12 -20.5l86 -513q3 -20 15.5 -36.5t31 -26t38.5 -9.5h512q3 0 6.5 1t6.5 2.5t5 4.5l4 4q2 3 2.5 6.5t0.5 7.5q0 10 -7.5 17.5t-17.5 7.5h-512q-12 0 -22.5 9t-12.5 20l-12 76l510 44q15 2 29 8.5t25 16.5t18.5 23.5t9.5 28.5l35 206q5 33 -15 56zM862 619l-34 -206
q-4 -21 -26 -31q-5 -2 -10 -3l-515 -44l-51 305h619q4 0 8 -1.5t6 -4.5t3 -6.5t0 -8.5z" />
    <glyph glyph-name="uniE61A" unicode="&#xe61a;" 
d="M896 -128h-819q-32 0 -54.5 22.5t-22.5 54.5v819q0 32 22.5 54.5t54.5 22.5h819q32 0 54.5 -22.5t22.5 -54.5v-819q0 -32 -22.5 -54.5t-54.5 -22.5zM77 794q-7 0 -13 -3.5t-9.5 -9.5t-3.5 -13v-819q0 -11 7.5 -18.5t18.5 -7.5h819q3 0 6.5 1t6.5 2.5t5 4t4 5.5t3 6t1 7
v819q0 11 -7.5 18.5t-18.5 7.5h-819zM333 26h-103q-10 0 -17.5 7.5t-7.5 17.5v461q0 5 2 10t5.5 8.5t8 5.5t9.5 2h103q10 0 17.5 -7.5t7.5 -18.5v-461q0 -7 -3 -13t-9 -9t-13 -3zM256 77h51v409h-51v-409zM538 26h-103q-10 0 -17.5 7.5t-7.5 17.5v615q0 10 7.5 17.5
t17.5 7.5h103q5 0 9.5 -2t8 -5.5t5.5 -8t2 -9.5v-615q0 -5 -2 -9.5t-5.5 -8t-8 -5.5t-9.5 -2zM461 77h51v563h-51v-563zM742 26h-102q-11 0 -18.5 7.5t-7.5 17.5v256q0 11 7.5 18.5t18.5 7.5h102q6 0 10.5 -2t8 -5.5t5.5 -8.5t2 -10v-256q0 -5 -2 -9.5t-5.5 -8t-8 -5.5
t-10.5 -2zM666 77h51v205h-51v-205z" />
    <glyph glyph-name="uniE61B" unicode="&#xe61b;" 
d="M486.5 -128q-97.5 0 -186.5 37t-157.5 105.5t-105.5 157.5t-37 186q0 65 16.5 126.5t48.5 117t77 100.5q69 69 158 106t186 37q39 0 77 -6t74 -18t70 -29t65 -39.5t58 -50.5q69 -69 106 -157.5t37 -186t-37 -186.5t-106 -157.5t-157.5 -105.5t-186 -37zM486 794
q-59 0 -115 -16t-104 -44t-88 -68t-68 -88t-44 -104.5t-16 -115.5q0 -88 34.5 -168.5t93 -139t139 -93t169 -34.5t169 34.5t139 93t93 139t34.5 168.5q0 167 -112 291q-107 120 -266 141q-29 4 -58 4zM384 154q-11 0 -18 7l-154 154q-5 5 -6.5 11.5t0 13t6.5 11.5q4 4 9 5.5
t9.5 1.5t9.5 -1.5t8 -5.5l136 -136l340 341q8 7 18.5 7t17.5 -7q4 -4 6 -9t2 -9.5t-2 -9.5t-6 -9l-358 -358q-2 -2 -4 -3.5t-4 -1.5l-6 -2h-4z" />
    <glyph glyph-name="uniE61C" unicode="&#xe61c;" horiz-adv-x="1025" 
d="M0 589q0 10 7.5 17.5t18 7.5t18.5 -7l442 -443l443 443q8 7 18.5 7t18 -7.5t7.5 -18t-8 -17.5l-461 -461q-7 -8 -17.5 -8t-18.5 8l-461 461q-7 7 -7 18z" />
    <glyph glyph-name="uniE61D" unicode="&#xe61d;" 
d="M863 459q-14 0 -23 -9t-9 -23v-408q0 -34 -22 -58.5t-55 -24.5h-593q-35 0 -65.5 25t-30.5 58v593q0 13 6 26.5t15.5 24.5t21.5 20t26 13.5t27 4.5h338q15 0 23.5 9t8.5 23q0 10 -4 17t-11 11t-17 4h-338q-83 0 -130 -61q-29 -41 -29 -92v-593q0 -66 45.5 -106.5
t113.5 -40.5h593q27 0 49.5 6.5t39 19.5t28.5 30.5t18 40.5t6 50v402q0 15 -9 26.5t-23 11.5zM991 816l-52 51q-28 29 -69.5 29t-70.5 -29l-89 -108l-485 -472v-13l-64 -211l45 -38l198 70h12l466 492l109 89q28 29 28 70.5t-28 69.5zM250 114l32 90l58 -58zM397 178l-89 90
l440 433l83 -83zM946 727l-64 -64l-96 96l64 64q3 0 12.5 3t13 3t13 -3t12.5 -3l51 -51q6 -9 4.5 -22.5t-10.5 -22.5z" />
    <glyph glyph-name="uniE61E" unicode="&#xe61e;" 
d="M717 -128q10 0 17.5 7.5t7.5 18t-7 18.5l-443 442l443 443q7 8 7 18.5t-7 17.5q-5 5 -11.5 7t-13 0t-11.5 -7l-461 -461q-8 -7 -8 -17.5t8 -18.5l461 -461q3 -3 8 -5t10 -2z" />
    <glyph glyph-name="uniE61F" unicode="&#xe61f;" 
d="M142.5 702q68.5 69 157.5 106t186.5 37t186 -37t157.5 -106t106 -157.5t37 -186t-37 -186.5t-106 -157.5t-157.5 -105.5t-186 -37t-186.5 37t-157.5 105.5t-105.5 157.5t-37 186.5t37 186t105.5 157.5zM486.5 -77q88.5 0 169 34.5t139 93t93 139t34.5 168.5
q0 180 -128 308t-308 128q-59 0 -115 -16t-104 -44t-88 -68t-68 -88t-44 -104.5t-16 -115.5q0 -88 34.5 -168.5t93 -139t139 -93t169 -34.5zM563 77q11 0 18.5 7.5t7.5 18t-8 17.5l-238 238l238 238q8 8 8 18.5t-7.5 18t-18 7.5t-18.5 -8l-256 -256q-7 -7 -7 -17.5t7 -18.5
l256 -256q8 -7 18 -7z" />
    <glyph glyph-name="uniE620" unicode="&#xe620;" 
d="M256 -128q-11 0 -18 8q-4 3 -6 8t-2 9.5t2 9.5t6 9l443 442l-443 443q-8 8 -8 18.5t8 17.5q5 5 11.5 7t13 0t11.5 -7l461 -461q7 -7 7 -17.5t-7 -18.5l-461 -461q-7 -7 -18 -7z" />
    <glyph glyph-name="uniE621" unicode="&#xe621;" 
d="M830 702q-69 69 -157.5 106t-186 37t-186.5 -37t-157.5 -106t-105.5 -157.5t-37 -186t37 -186.5t105.5 -157.5t157.5 -105.5t186.5 -37t186 37t157.5 105.5t106 157.5t37 186.5t-37 186t-106 157.5zM486 -77q-88 0 -168.5 34.5t-139 93t-93 139t-34.5 169t34.5 169
t93 139t139 93t168.5 34.5q59 0 115.5 -16t104.5 -44t88 -68t68 -88t44 -104.5t16 -115.5q0 -166 -112 -290q-107 -120 -266 -141q-29 -4 -58 -4zM410 77q-11 1 -19 7q-4 5 -6 11.5t0 13.5t6 11l238 238l-238 238q-4 5 -6 11.5t0 13.5t6 11q3 3 7 5t8 2.5t7.5 0t7.5 -2.5
t7 -5l256 -256q7 -7 7 -17.5t-7 -18.5l-256 -256q-4 -3 -8.5 -5t-9.5 -2z" />
    <glyph glyph-name="uniE622" unicode="&#xe622;" horiz-adv-x="1025" 
d="M0 128q0 -11 7.5 -18.5t18 -7.5t18.5 8l442 443l443 -443q8 -8 18.5 -8t17.5 8q5 5 7 11.5t0 13t-7 11.5l-461 461q-7 7 -17.5 7t-18.5 -7l-461 -461q-7 -7 -7 -18z" />
    <glyph glyph-name="uniE623" unicode="&#xe623;" 
d="M142 702q-68 -69 -105 -157.5t-37 -186t37 -186.5t105.5 -157.5t157.5 -105.5t186.5 -37t186 37t157.5 105.5t106 157.5t37 186.5t-37 186t-106 157.5t-157.5 106t-186.5 37q-38 0 -76 -6t-74 -18t-70 -29t-65 -39.5t-59 -50.5zM922 358q0 -59 -16 -115t-44 -104t-68 -88
t-88 -68t-104.5 -44t-115.5 -16q-88 0 -168.5 34.5t-139 93t-93 139t-34.5 168.5q0 71 22 137.5t62.5 120t94 94t120 62.5t136.5 22q167 0 291 -112q120 -107 141 -266q4 -29 4 -58zM768 282q-1 -11 -7 -19q-3 -2 -7 -4t-8 -2.5t-7.5 0t-7.5 2.5t-7 4l-238 238l-237 -238
q-5 -4 -12 -6t-13.5 0t-11.5 6q-7 8 -7 18.5t7 18.5l256 256q4 3 9 5t9.5 2t9.5 -2t9 -5l256 -256q1 -2 2.5 -4.5t2.5 -4.5t1.5 -4.5t0.5 -4.5z" />
    <glyph glyph-name="uniE624" unicode="&#xe624;" 
d="M830 702q-69 69 -157.5 106t-186 37t-186.5 -37t-157.5 -106t-105.5 -157.5t-37 -186t37 -186.5t105.5 -157.5t157.5 -105.5t186.5 -37t186 37t157.5 105.5t106 157.5t37 186.5t-37 186t-106 157.5zM486 -77q-88 0 -168.5 34.5t-139 93t-93 139t-34.5 169t34.5 169
t93 139t139 93t168.5 34.5q59 0 115.5 -16t104.5 -44t88 -68t68 -88t44 -104.5t16 -115.5q0 -166 -112 -290q-107 -120 -266 -141q-29 -4 -58 -4zM794 333h-615q-5 0 -9.5 2t-8 5.5t-5.5 8t-2 10t2 10t5.5 8t8 5.5t9.5 2h615q2 0 4.5 -0.5t5 -1.5t4.5 -2.5t3.5 -3t3 -3.5
t2.5 -4.5t1.5 -5t0.5 -5.5t-0.5 -5.5t-2.5 -4.5l-2 -6l-4 -4l-6 -2q-2 -2 -4.5 -2.5t-5.5 -0.5z" />
    <glyph glyph-name="uniE625" unicode="&#xe625;" 
d="M836 20q66 68 101.5 155.5t35.5 182.5q0 46 -8.5 90t-24 85t-39 79t-53.5 72l35 35l33 -33q8 -8 18 -8q5 0 10 2t8 6q8 7 8 18t-8 18l-102 103q-7 7 -18 7t-18.5 -7.5t-7.5 -18t8 -18.5l33 -33l-35 -35q-27 24 -56.5 44t-62 35t-66 25t-69 15.5t-72.5 5.5q-45 0 -89 -8
t-85 -24t-79.5 -39.5t-71.5 -53.5l-35 35l33 33q5 5 6.5 11.5t0 13.5t-6.5 12q-3 2 -6.5 4t-7.5 2.5t-8 0t-7.5 -2.5t-6.5 -4l-103 -103q-7 -7 -7 -18t7 -18q4 -4 8.5 -6t9.5 -2q11 0 19 8l33 33l35 -35q-61 -67 -93 -151t-32 -175q0 -95 35.5 -182.5t101.5 -155.5
l-104 -104q-4 -4 -5.5 -9t-1.5 -9.5t1.5 -9.5t5.5 -8.5t8.5 -5.5t9.5 -2q11 0 18 8l106 105q135 -113 311.5 -113t311.5 113l106 -105q3 -4 8 -6t10 -2q10 0 17.5 7.5t7.5 18t-7 18.5zM51 358q0 60 16 116t44 104t68 88t88 68t104 44t115 16q89 0 169.5 -34.5t139 -93
t93 -139t34.5 -169.5q0 -39 -7 -77.5t-20.5 -73.5t-32.5 -68t-43 -61t-52.5 -52t-61 -43t-67.5 -32.5t-73.5 -20.5t-78.5 -7q-88 0 -168.5 34.5t-139 93t-93 139t-34.5 168.5zM775 525q-6 9 -16 11.5t-19 -2.5l-252 -145l-197 137q-8 6 -18.5 4.5t-16.5 -10.5t-4.5 -19.5
t10.5 -16.5l210 -147q1 0 1 -1h1l1 -1h1h1l1 -1h2q0 -1 1 -1h1h1h1h1h1v0h3h2h1q1 1 2 1h1q2 1 3 1v1h1l266 154q9 5 12 15.5t-2 19.5z" />
    <glyph glyph-name="uniE626" unicode="&#xe626;" 
d="M820 77h-513q-127 0 -217 90t-90 217t90 217t217 90q62 0 118.5 -23.5t99.5 -67.5q3 5 5.5 10t5.5 9.5t6 9.5q14 19 34 33t42.5 21.5t47.5 7.5q63 0 108 -45t45 -108q0 -7 -0.5 -13.5t-1.5 -13t-3 -13t-4 -12.5h10q84 0 144 -60t60 -144.5t-60 -144.5t-144 -60zM307 640
q-69 0 -128 -34.5t-93.5 -93.5t-34.5 -128q0 -106 75 -181t181 -75h513q63 0 108 45t45 108.5t-45 108.5t-108 45q-28 0 -53 -10q-19 -7 -30 10q-3 4 -4 8.5t-0.5 8.5t2.5 8t5 7q6 7 11.5 15.5t9 17.5t5.5 18.5t2 19.5q0 27 -13.5 51t-37.5 37.5t-51 13.5q-52 0 -83 -42
q-18 -24 -20 -54q-1 -18 -18.5 -23t-27.5 10q-4 6 -9 12t-9 11q-37 41 -87 63.5t-105 22.5z" />
    <glyph glyph-name="uniE627" unicode="&#xe627;" 
d="M819 77h-486q-11 0 -18.5 7.5t-7.5 18t7.5 18t18.5 7.5h486q42 0 77.5 20.5t56 56t20.5 77.5q0 63 -45 108t-109 45q-26 0 -51 -9q-19 -6 -30 10.5t3 31.5q27 30 27 70q0 42 -30 72t-72 30q-41 0 -70.5 -28t-32.5 -68q-1 -18 -18.5 -23t-27.5 10q-36 51 -91.5 80
t-118.5 29q-69 0 -128 -34.5t-93.5 -93.5t-34.5 -128q0 -6 0.5 -11.5t0.5 -11.5q1 -11 -5.5 -19t-17.5 -9t-19 6t-9 17q-1 14 -1 28q0 127 90 217t217 90q62 0 118.5 -23.5t99.5 -67.5q19 41 57 66t84 25q63 0 108 -45t45 -108q0 -27 -9 -52h4h2h3q56 0 103 -27t74.5 -74.5
t27.5 -102.5q0 -85 -60 -145t-145 -60zM179 102q-10 0 -18 8l-102 102q-8 8 -8 18.5t7.5 18t18 7.5t18.5 -8l84 -84l238 238l3 3l4 2q1 1 3 1l4 2h4h4l4 -2q2 0 3.5 -1t3.5 -2t3 -3q4 -4 6 -8.5t2 -9.5t-2 -9.5t-6 -8.5l-256 -256q-7 -8 -18 -8z" />
    <glyph glyph-name="uniE628" unicode="&#xe628;" horiz-adv-x="1025" 
d="M820 77h-129q-10 0 -17.5 7.5t-7.5 17.5q0 6 2 10.5t5.5 8t8 5.5t9.5 2h129q63 0 108 45t45 108.5t-45 108.5t-108 45q-28 0 -53 -10q-8 -3 -16.5 0t-13.5 10.5t-4 16.5t7 15q14 14 21 32.5t7 38.5q0 42 -30 72t-72 30q-52 0 -83 -42q-6 -8 -10 -16.5t-6.5 -18
t-3.5 -19.5q0 -8 -5 -14.5t-13 -8.5q-18 -5 -28 10q-9 12 -18 23q-37 41 -87 63.5t-105 22.5q-69 0 -128 -34.5t-93.5 -93.5t-34.5 -128q0 -106 75 -181t181 -75h77q11 0 18.5 -7.5t7.5 -18.5q0 -5 -2 -9.5t-5.5 -8t-8.5 -5.5t-10 -2h-77q-127 0 -217 90t-90 217t90 217
t217 90q62 0 118.5 -23.5t99.5 -67.5q7 15 17 29q22 29 54.5 45.5t69.5 16.5q15 0 30.5 -3t29 -9t26 -14.5t23 -18.5t18.5 -22.5t14 -26t9 -29t3 -30.5q0 -14 -2 -27t-7 -26q4 1 10 1q84 0 144 -60t60 -144.5t-60 -144.5t-144 -60zM658 223q-4 4 -8.5 5.5t-9.5 1.5
t-9.5 -1.5t-8.5 -5.5l-59 -59v194q0 6 -2 10.5t-5.5 8t-8 5.5t-10 2t-10 -2t-8 -5.5t-5.5 -8t-2 -10.5v-194l-59 59q-4 5 -11 6.5t-13.5 0t-11.5 -6.5q-7 -8 -7 -18.5t7 -17.5l103 -103q7 -7 18 -7q11 1 18 7l102 103q8 7 8 17.5t-8 18.5z" />
    <glyph glyph-name="uniE629" unicode="&#xe629;" 
d="M929 61l-192 192q24 30 40 64t25 72t9 78q0 95 -47 175.5t-127.5 127.5t-175.5 47q-71 0 -136 -28t-111.5 -74.5t-74.5 -111.5t-28 -136q0 -95 47 -175.5t127.5 -127.5t175.5 -47q120 0 215 74l191 -192q13 -13 31 -13t31 13t13 31t-13 31zM199 467q0 109 77 185.5
t185 76.5q71 0 131.5 -35t95.5 -95.5t35 -131.5q0 -108 -76.5 -185t-185.5 -77q-71 0 -131.5 35t-95.5 95.5t-35 131.5z" />
    <glyph glyph-name="uniE62A" unicode="&#xe62a;" 
d="M589 486q10 0 17.5 7.5t7.5 18.5v205q0 15 -6 29.5t-16 24.5t-24.5 16.5t-29.5 6.5h-461q-32 0 -54.5 -22.5t-22.5 -54.5v-615q0 -28 18 -55.5t45 -38.5l264 -114q4 -2 9 -3t9.5 -2t8.5 -1q17 0 30 9q26 17 26 52v77h128q15 0 29.5 6t24.5 16t16 24.5t6 29.5v205
q0 11 -7.5 18.5t-17.5 7.5q-7 0 -13 -3.5t-9.5 -9.5t-3.5 -13v-205q0 -10 -7.5 -17.5t-17.5 -7.5h-128v486q0 10 -2.5 19.5t-6.5 19t-9.5 18t-12.5 16t-15 13t-17 9.5l-197 84h388q5 0 9.5 -2t8 -5t5.5 -8t2 -10v-205q0 -11 7.5 -18.5t18.5 -7.5zM327 611q12 -5 21.5 -19.5
t9.5 -28.5v-614q0 -8 -2 -9h-2h-3q-2 0 -4 1l-264 114q-13 5 -22.5 19.5t-9.5 27.5v615q0 3 1 5.5t2 5.5zM940 428l-154 153q-4 4 -8.5 6t-9.5 2t-9.5 -2t-8.5 -5.5t-6 -8.5t-2 -10t2 -9.5t6 -8.5l110 -110h-322q-6 0 -10.5 -2t-8 -5.5t-5.5 -8t-2 -9.5q0 -3 0.5 -6t1.5 -6
l4 -4q1 -3 4 -4l4 -4q3 -1 6 -1.5t6 -0.5h322l-110 -110q-8 -7 -8 -18t7.5 -18t18.5 -7t18 7l154 154q7 7 7 17.5t-7 18.5z" />
    <glyph glyph-name="uniE62B" unicode="&#xe62b;" 
d="M256 128q-11 0 -18 7l-205 205q-7 8 -7 18.5t7 17.5l205 205q7 8 18 8t18 -8q5 -5 6.5 -11.5t0 -13t-6.5 -11.5l-187 -187l187 -186q2 -2 3.5 -4.5t2.5 -5.5t1.5 -5.5t0 -5.5t-1.5 -5.5t-2.5 -5t-3.5 -4.5q-2 -3 -5 -4.5t-6.5 -2.5t-6.5 -1zM768 128q-11 0 -18 7
q-4 4 -6 9t-2 9.5t2 9.5t6 9l187 186l-187 187q-4 4 -6 8.5t-2 9.5t2 10t6 8q7 8 18 8t18 -8l205 -205q5 -4 6.5 -11t0 -13.5t-6.5 -11.5l-205 -205q-7 -7 -18 -7zM384 128q-4 0 -7 1t-7 3q-5 4 -8.5 10t-3 12.5t3.5 12.5l256 410q6 9 16.5 11.5t19.5 -3.5t11 -16t-3 -19
l-256 -410q-8 -12 -22 -12z" />
    <glyph glyph-name="uniE62C" unicode="&#xe62c;" 
d="M512 128q-64 0 -109 45t-45 108.5t45 108.5t109 45q42 0 77 -20.5t56 -56t21 -76.5q0 -64 -45 -109t-109 -45zM512 384q-42 0 -72 -30t-30 -72q0 -21 8 -40t21.5 -33t32.5 -22t40 -8q42 0 72 30t30 72.5t-30 72.5t-72 30zM814 791l-9 36q-7 29 -32.5 49t-55.5 20h-410
q-30 0 -55.5 -20t-32.5 -49l-9 -36q-25 -7 -41 -27.5t-16 -46.5v-51q0 -8 1.5 -15t4 -13t6 -12t8 -11t10 -9.5t11.5 -7.5t12 -5l46 -646q2 -20 13 -37.5t29 -27.5t39 -10h358q20 0 38 10t29.5 27.5t12.5 37.5l47 646q23 7 37.5 27t14.5 46v51q0 26 -15.5 46.5t-40.5 27.5z
M307 845h410q12 0 24 -9.5t15 -20.5l5 -21h-498l5 21l2 5l4 6t4 5.5t5 4.5t6 3.5t6 2.5l6 2q3 1 6 1zM762 538h-500l-4 51h508l-3 -51h-1zM730 77h-435l-30 409h494zM691 -77h-358q-4 0 -7.5 1t-6.5 3t-6 4.5t-5 5.5t-3 6.5t-2 6.5l-5 76h428l-6 -76q0 -5 -2.5 -10
t-6.5 -8.5t-9 -6t-11 -2.5zM819 666q0 -6 -2 -10.5t-5.5 -8t-8 -5.5t-9.5 -2h-564q-4 0 -8 1.5t-7 3.5t-5.5 5.5t-3.5 7t-1 8.5v51q0 10 7.5 17.5t17.5 7.5h1h563q4 0 8 -1t7 -3.5t5.5 -5.5t3.5 -7t1 -8v-51z" />
    <glyph glyph-name="uniE62D" unicode="&#xe62d;" 
d="M391 -113q-4 0 -7 1q-69 18 -131 54q-9 6 -11.5 16t2.5 19q12 23 12 49q0 27 -13.5 51t-37.5 37.5t-51 13.5t-49 -12q-3 -2 -6.5 -3t-6.5 -0.5t-6.5 1t-6 2t-5 4t-4.5 5.5q-36 62 -54 131q-3 10 2 19t15 12q31 11 50 37.5t19 59.5t-19 60t-50 37q-10 3 -15 12t-2 19
q18 69 54 131q5 9 15 11.5t20 -2.5q11 -6 23.5 -9t25.5 -3q27 0 51 13.5t37.5 37.5t13.5 51t-12 49q-2 4 -3 8t-0.5 8t2 7.5t4.5 6.5t6 5q62 36 131 54q7 2 13 0t11 -6t7 -11q10 -31 37 -50t60 -19t59.5 19t37.5 50q2 7 7 11t11 6t13 0q34 -9 67 -22.5t64 -31.5
q9 -5 11.5 -15t-2.5 -20q-6 -11 -9 -23.5t-3 -25.5q0 -42 30 -72t72 -30q26 0 49 12q3 2 5.5 2.5t5.5 1t5.5 0t5.5 -1.5t5 -2.5t4 -4t4 -4.5q36 -62 54 -131q2 -10 -2.5 -19t-14.5 -12q-20 -7 -36 -21.5t-24.5 -34t-8.5 -41.5q0 -33 19 -59.5t50 -37.5q10 -3 14.5 -12
t2.5 -19q-18 -69 -54 -131q-6 -9 -16 -11.5t-19 2.5q-23 12 -49 12q-42 0 -72 -30t-30 -72q0 -26 12 -49q3 -5 3.5 -10t-1 -9.5t-4.5 -8.5t-7 -7q-62 -36 -131 -54q-7 -2 -13 0t-11 6t-7 11q-7 20 -21.5 36t-34 24.5t-41.5 8.5q-33 0 -60 -19t-37 -50q-1 -3 -3 -6t-4 -5
t-5 -3.5t-6 -2.5t-6 -1zM512 26q29 0 55 -10.5t47 -29t34 -42.5q20 6 39.5 14t37.5 17q-8 25 -8 51q0 63 45 108t108 45q7 0 13.5 -0.5t12.5 -1.5t12.5 -2.5t12.5 -3.5q19 37 31 77q-37 20 -59.5 56.5t-22.5 79.5t22.5 79.5t59.5 56.5q-12 40 -31 77q-8 -2 -16.5 -4t-17 -3
t-17.5 -1q-41 0 -76.5 20.5t-56 56t-20.5 77.5q0 25 8 50q-18 9 -37.5 17t-39.5 15q-13 -25 -34 -43.5t-47 -28.5t-55 -10q-43 0 -79.5 22t-56.5 60q-40 -13 -77 -32q4 -12 6 -25t2 -25q0 -16 -3 -31.5t-9 -29t-14.5 -26t-18.5 -22.5t-22.5 -18.5t-26 -14.5t-29 -9t-30.5 -3
q-26 0 -51 8q-6 -12 -12 -25t-10.5 -26t-8.5 -26q37 -20 59.5 -56.5t22.5 -79.5q0 -12 -2 -24t-6 -23.5t-9 -22t-12 -20t-15.5 -18t-18 -15.5t-19.5 -13q3 -10 6.5 -20t7.5 -19.5t8.5 -19t8.5 -18.5q25 8 51 8q63 0 108 -45t45 -108q0 -26 -8 -51q37 -19 77 -31
q6 10 13 19.5t15.5 18t18 15.5t20 12t22 9t23.5 6t24 2zM512 230q-64 0 -109 45t-45 109t45 109t109 45q42 0 77 -21t56 -56t21 -77t-21 -77t-56 -56t-77 -21zM512 486q-42 0 -72 -30t-30 -72t30 -72t72 -30t72 30t30 72t-30 72t-72 30z" />
    <glyph glyph-name="uniE62E" unicode="&#xe62e;" 
d="M1024 640v77q0 5 -2 9.5t-5.5 8t-8 5.5t-10.5 2h-179h-256h-256h-281q-11 0 -18.5 -7.5t-7.5 -17.5v-307q0 -11 7.5 -18.5t18.5 -7.5h76v-307h-25q-11 0 -18.5 -7.5t-7.5 -18t7.5 -18t18.5 -7.5h205q10 0 17.5 7.5t7.5 18t-7.5 18t-17.5 7.5h-26v153h512v-153h-26
q-3 0 -6 -1l-4 -2q-3 -1 -5.5 -3t-4 -4t-3 -4.5t-2 -5.5t-0.5 -6q0 -5 2 -9.5t5.5 -8t8 -5.5t9.5 -2h205q7 0 13 3t9.5 9t3.5 13q0 11 -7.5 18.5t-18.5 7.5h-25v307h76q6 0 10.5 2t8 5.5t5.5 8t2 10.5v230zM973 651l-216 -216h-183l256 256h143v-40zM318 435l256 256h183
l-256 -256h-183zM62 435l256 256h183l-256 -256h-183zM245 691l-194 -194v194h194zM154 77v307h51v-307h-51zM256 282v102h512v-102h-512zM870 77h-51v307h51v-307zM830 435l143 143v-143h-143z" />
    <glyph glyph-name="uniE62F" unicode="&#xe62f;" 
d="M998 128h-153q-3 0 -6 0.5t-5.5 2t-4.5 3t-4 4t-3 5t-2 5.5t-1 6q0 10 7.5 17.5t18.5 7.5h153q7 0 13 -3.5t9.5 -9t3.5 -12.5q0 -6 -2 -10.5t-5.5 -8t-8 -5.5t-10.5 -2zM640 128h-358q-4 0 -7.5 1t-6 2.5t-5 4t-4 5t-2.5 6t-1 7.5v358q0 11 7.5 18.5t18 7.5t18 -7.5
t7.5 -18.5v-333h333q3 0 6.5 -1t6.5 -2.5t5 -3.5l4 -6q2 -2 3 -5.5t1 -6.5q0 -11 -7.5 -18.5t-18.5 -7.5zM282 691q-6 0 -10.5 2t-8 5.5t-5.5 8.5t-2 10v153q0 11 7.5 18.5t18 7.5t18 -7.5t7.5 -18.5v-153q0 -11 -7.5 -18.5t-17.5 -7.5zM742.5 -128q-10.5 0 -18 7.5
t-7.5 18.5v691h-691q-11 0 -18.5 7.5t-7.5 18t7.5 18t18.5 7.5h716q11 0 18.5 -7.5t7.5 -18.5v-716q0 -11 -7.5 -18.5t-18 -7.5z" />
    <glyph glyph-name="uniE630" unicode="&#xe630;" 
d="M548 358l289 289q3 3 5 7t2.5 8t0 7.5t-2.5 7.5t-5 7q-7 7 -17.5 7t-18.5 -7l-289 -289l-289 289q-8 7 -18.5 7t-17.5 -7q-4 -4 -6 -9t-2 -9.5t2 -9.5t6 -9l289 -289l-289 -289q-2 -2 -3.5 -4.5t-2.5 -5t-1.5 -5.5t0 -5.5t1.5 -5.5t2.5 -5.5t3.5 -4.5q7 -7 17.5 -7
t18.5 7l289 289l289 -289q8 -7 18 -7q11 0 18 7q8 8 8 18.5t-8 17.5z" />
    <glyph glyph-name="uniE631" unicode="&#xe631;" 
d="M734 173l-209 185l209 186q8 7 8.5 17.5t-6.5 18.5t-17.5 8.5t-18.5 -6.5l-214 -189l-213 189q-8 7 -18.5 6.5t-17.5 -8.5q-5 -5 -6 -11.5t1 -13t7 -11.5l209 -186l-209 -185q-8 -7 -8.5 -17.5t6.5 -18.5q4 -5 9 -7t10 -2q10 0 17 6l213 190l214 -190q1 -1 2.5 -2
t3.5 -1.5t3.5 -1t3.5 -1t4 -0.5q5 0 10 2t9 7q14 16 1 32q-2 3 -3 4zM486.5 -128q-97.5 0 -186.5 37t-157.5 105.5t-105.5 157.5t-37 186q0 65 16.5 126.5t48.5 117t77 100.5q69 69 158 106t186 37q39 0 77 -6t74 -18t70 -29t65 -39.5t58 -50.5q69 -69 106 -157.5t37 -186
t-37 -186.5t-106 -157.5t-157.5 -105.5t-186 -37zM486 794q-59 0 -115 -16t-104 -44t-88 -68t-68 -88t-44 -104.5t-16 -115.5q0 -88 34.5 -168.5t93 -139t139 -93t169 -34.5t169 34.5t139 93t93 139t34.5 168.5q0 167 -112 291q-107 120 -266 141q-29 4 -58 4z" />
    <glyph glyph-name="uniE632" unicode="&#xe632;" 
d="M925 814q-19 12 -45.5 23t-60.5 21q-139 38 -333 38t-332 -38q-68 -19 -106 -44q-48 -32 -48 -72v-614q0 -40 48 -71q38 -25 106 -44q138 -39 332.5 -39t332.5 39q68 19 106 44q48 31 48 71v614q0 8 -2 16t-6 15t-9.5 14t-13 13.5t-17.5 13.5zM167.5 808q42.5 12 93.5 20
t108 12.5t117 4.5q188 0 319 -37q17 -4 31.5 -9t25.5 -10t20.5 -10t15.5 -9t11 -8t7.5 -8t4 -6.5t1.5 -5.5q0 -7 -9 -16.5t-37 -23.5t-71 -25q-63 -18 -145.5 -27.5t-173.5 -9.5q-187 0 -319 37q-22 6 -40 12.5t-30.5 13t-21.5 12.5t-14 11t-7.5 9t-2.5 7q0 7 9 16.5
t37 23.5t70.5 26zM805 62q-31 -9 -68 -15.5t-77.5 -11.5t-84 -7t-89.5 -2q-187 0 -319 36q-42 12 -70 26t-37 23.5t-9 16.5v131q38 -23 103 -41q138 -39 332.5 -39t332.5 39q65 18 103 41v-131q0 -7 -9 -16.5t-37 -23.5t-71 -26zM805 267q-63 -18 -145.5 -27.5t-173.5 -9.5
q-187 0 -319 37q-42 12 -70 26t-37 23.5t-9 16.5v131q38 -24 103 -42q138 -38 332 -38q195 0 333 38q32 9 58 19.5t45 22.5v-131q0 -7 -9 -16.5t-37 -23.5t-71 -26zM805 472q-63 -18 -145.5 -27.5t-173.5 -9.5q-187 0 -319 37q-22 6 -40 12.5t-30.5 13t-21.5 12.5t-14 11
t-7.5 9t-2.5 8v131q38 -24 103 -42q44 -12 97.5 -20.5t113 -13t121.5 -4.5q195 0 333 38q65 18 103 42v-131q0 -7 -9 -16.5t-37 -23.5t-71 -26z" />
    <glyph glyph-name="uniE633" unicode="&#xe633;" 
d="M968 527l-154 205q-3 4 -7 6.5t-9 3.5l-307 51q-5 1 -9 0l-307 -51q-5 -1 -9 -3.5t-7 -6.5l-154 -205q-2 -2 -3 -5t-1.5 -5.5t-0.5 -5.5t1 -6t2.5 -5.5t3.5 -4.5l460 -512q4 -4 9 -6.5t10 -2.5q12 0 19 9l461 512q14 16 2 32zM655 538l-169 -463l-168 463h337zM343 589
l143 143l143 -143h-286zM561 730l189 -32l-63 -95zM286 603l-64 95l190 32zM239 581l-153 -31l92 123zM265 534l152 -419l-342 381zM708 534l190 -38l-343 -381zM734 581l61 92l92 -123z" />
    <glyph glyph-name="uniE634" unicode="&#xe634;" 
d="M281.5 77q-31.5 0 -54 22.5t-22.5 54t22.5 54t54.5 22.5q20 0 38 -10t28 -28t10 -38q0 -32 -22.5 -54.5t-54 -22.5zM282 179q-6 0 -10.5 -2t-8 -5.5t-5.5 -8t-2 -9.5q0 -11 7.5 -18.5t18.5 -7.5q3 0 6.5 1t6 2.5t5 4t4 5t2.5 6t1 7.5q0 10 -7.5 17.5t-17.5 7.5z
M281.5 282q-31.5 0 -54 22.5t-22.5 54t22.5 54t54.5 22.5q15 0 29.5 -6t24.5 -16.5t16 -24.5t6 -30q0 -31 -22.5 -53.5t-54 -22.5zM281.5 384q-10.5 0 -18 -7.5t-7.5 -18t7.5 -18t18 -7.5t18 7.5t7.5 18t-7.5 18t-18 7.5zM282 486q-32 0 -54.5 22.5t-22.5 54.5q0 16 6 30
t16.5 24.5t24.5 16.5t30 6q12 0 24 -4t21 -11t16.5 -16.5t11 -21t3.5 -24.5q0 -21 -10 -38.5t-28 -28t-38 -10.5zM282 589q-6 0 -10.5 -2t-8 -5.5t-5.5 -8.5t-2 -10q0 -10 7.5 -17.5t18.5 -7.5q5 0 9.5 2t8 5.5t5.5 8t2 9.5q0 11 -7.5 18.5t-17.5 7.5zM691 486
q-32 0 -54.5 22.5t-22.5 54.5q0 13 4 24.5t11 21t16.5 16.5t21.5 11t24 4q16 0 30 -6t24.5 -16.5t16.5 -24.5t6 -30q0 -32 -22.5 -54.5t-54.5 -22.5zM691 589q-5 0 -9.5 -2t-8 -5.5t-5.5 -8.5t-2 -10q0 -10 7.5 -17.5t17.5 -7.5q5 0 10 2t8.5 5.5t5.5 8t2 9.5
q0 11 -7.5 18.5t-18.5 7.5zM691 282q-32 0 -54.5 22.5t-22.5 54t22.5 54t54.5 22.5t54.5 -22.5t22.5 -54t-22.5 -54t-54.5 -22.5zM691.5 384q-10.5 0 -18 -7.5t-7.5 -18t7.5 -18t18 -7.5t18 7.5t7.5 18t-7.5 18t-18 7.5zM691 77q-32 0 -54.5 22.5t-22.5 54t22.5 54
t54.5 22.5t54.5 -22.5t22.5 -53.5q0 -21 -10.5 -39t-28 -28t-38.5 -10zM691 179q-3 0 -6.5 -1t-6.5 -2.5t-5 -3.5l-4 -6q-2 -2 -2.5 -5.5t-0.5 -6.5q0 -11 7.5 -18.5t17.5 -7.5q4 0 7 1t6 2.5t5.5 4t4 5t2.5 6t1 7.5q0 10 -7.5 17.5t-18.5 7.5zM794 -77h-615
q-34 0 -63.5 17.5t-47 47t-17.5 63.5v615q0 53 37.5 90.5t90.5 37.5h615q53 0 90.5 -37.5t37.5 -90.5v-615q0 -53 -37.5 -90.5t-90.5 -37.5zM179 742q-15 0 -29.5 -6t-24.5 -16t-16.5 -24.5t-6.5 -29.5v-615q0 -32 22.5 -54.5t54.5 -22.5h615q31 0 53.5 22.5t22.5 54.5v615
q0 15 -6 29.5t-16 24.5t-24.5 16t-29.5 6h-615z" />
    <glyph glyph-name="uniE635" unicode="&#xe635;" 
d="M410 870q0 11 -7.5 18.5t-18.5 7.5t-18.5 -7.5t-7.5 -18.5q0 -31 4.5 -64.5t8.5 -52.5t11 -50q6 -28 8.5 -42t3 -29t-5.5 -22q-4 -6 -15 -10.5t-27 -7t-39 -3.5v25v205q0 5 -2 10t-5.5 8.5t-8 5.5t-9.5 2q-7 0 -13 -3.5t-9.5 -9.5t-3.5 -13v-205v-25q-67 3 -81 21
q-5 7 -5 22.5t2.5 29t9.5 41.5q7 31 11 50t8 52.5t4 64.5q0 7 -3.5 13t-9.5 9.5t-13 3.5t-12.5 -3.5t-9 -9.5t-3.5 -13q0 -60 -22 -155q-9 -37 -12 -55.5t-0.5 -42t15.5 -39.5q29 -36 120 -40q-6 -143 -44 -367q-11 -65 -15.5 -95.5t-7 -71t3.5 -64t20 -40.5q6 -7 13 -12
t16 -8.5t19 -5.5t22 -2q23 0 40.5 7t29.5 21q14 17 20 40.5t3 64t-7.5 71t-15.5 95.5q-37 224 -43 367q91 4 120 40q12 16 14.5 39.5t-0.5 41.5t-11 55q-22 95 -22 156zM313 -66q-2 -2 -3.5 -3t-4 -2.5t-5.5 -2.5t-8 -2t-10 -1q-10 0 -16.5 2t-9.5 4t-5 5q-9 9 -11.5 29.5
t1.5 56.5t7.5 62.5t12.5 79.5q14 78 21 127q6 -45 20 -127q9 -53 13 -79.5t7.5 -62.5t1 -56.5t-10.5 -29.5zM813 171q-14 83 -21.5 133.5t-15.5 139.5t-8 170v256q0 20 -19 25t-29 -12q-29 -51 -55.5 -118t-43.5 -121t-31.5 -112.5t-19 -80.5t-6.5 -37q-1 -4 -0.5 -7.5t2 -7
t3.5 -6.5q8 -9 20 -9h114q-9 -80 -31 -213q-11 -65 -15.5 -95.5t-7.5 -71t3 -64t20 -39.5q6 -8 13.5 -13t16.5 -8.5t19 -5.5t21 -2q46 0 70 29q34 39 19 155q-4 35 -18 115zM620 435q39 184 97 324v-145q0 -45 -2.5 -90t-6.5 -89h-88zM773 -66q-8 -11 -30.5 -11t-31.5 11
q-8 9 -10.5 29.5t1 56.5t7.5 62.5t13 79.5q4 24 7 41t6.5 40.5t6.5 45.5q7 -46 21 -127q9 -53 13 -79.5t7.5 -62.5t1 -56.5t-11.5 -29.5z" />
    <glyph glyph-name="uniE636" unicode="&#xe636;" 
d="M653 429q26 17 47.5 39.5t36.5 49t23 58t8 64.5q0 106 -75 181t-181 75t-181 -75t-75 -181q0 -27 5 -52t15 -48t24 -43.5t32 -37.5t39 -30q-135 -39 -221 -140t-86 -225q0 -49 23.5 -84t61.5 -55.5t98.5 -32.5t121.5 -16t143 -4q70 0 120.5 2.5t105.5 9t92 20t68.5 34
t46.5 52.5t15 74q0 82 -39.5 156.5t-109 128.5t-158.5 80zM320 640q0 82 55 137t137 55t137 -55t55 -137t-55 -137t-137 -55t-137 55t-55 137zM512 -64q-87 0 -150 5t-119.5 18t-85.5 39.5t-29 65.5q0 134 112.5 227t271.5 93t271.5 -93t112.5 -227q0 -39 -29 -65.5
t-85.5 -39.5t-119.5 -18t-150 -5z" />
    <glyph glyph-name="uniE637" unicode="&#xe637;" 
d="M928 166h-128v128q0 15 -9 23.5t-23 8.5t-23 -8.5t-9 -23.5v-128h-128q-14 0 -23 -8.5t-9 -23t9 -23.5t23 -9h128v-128q0 -14 9 -23t23 -9t23 9t9 23v128h128q14 0 23 9t9 23.5t-9 23t-23 8.5zM659 -58q-9 0 0 0q-51 -6 -147 -6q-87 0 -150 5t-119.5 18t-85.5 39.5
t-29 65.5q0 134 112.5 227t271.5 93q46 0 89 -8.5t84 -23.5h6q10 0 17 4t11 11t4 17q0 9 -7.5 18t-17.5 14q-7 3 -23 9.5t-22 9.5q53 29 84 83.5t31 121.5q0 106 -75 181t-181 75t-181 -75t-75 -181q0 -27 5 -52t15 -48t24 -43.5t32 -37.5t39 -30q-135 -39 -221 -140
t-86 -225q0 -49 23.5 -84t61.5 -55.5t98.5 -32.5t121.5 -16t143 -4q96 0 141 6q14 0 23 9t9 23q2 5 0 10.5t-6 10.5t-9.5 8t-10.5 3zM320 640q0 82 55 137t137 55t137 -55t55 -137t-55 -137t-137 -55t-137 55t-55 137z" />
    <glyph glyph-name="uniE638" unicode="&#xe638;" 
d="M760 402q-4 5 -11 6.5t-13.5 0t-11.5 -6.5l-212 -212v578q0 11 -7.5 18.5t-18 7.5t-18 -7.5t-7.5 -18.5v-578l-212 212q-4 4 -9 6t-9.5 2t-9.5 -2t-9 -6q-7 -7 -7 -18t7 -18l256 -256q3 -3 6 -4.5t6 -2.5t6 -1q11 1 19 8l256 256q7 7 7 18t-7 18h-1zM896 -77h-819
q-32 0 -54.5 22.5t-22.5 54.5v102q0 11 7.5 18.5t18 7.5t18 -7.5t7.5 -18.5v-102q0 -7 3.5 -13t9.5 -9.5t13 -3.5h819q11 0 18.5 7.5t7.5 18.5v102q0 11 7.5 18.5t18 7.5t18 -7.5t7.5 -18.5v-102q0 -21 -10.5 -38.5t-28 -28t-38.5 -10.5z" />
    <glyph glyph-name="uniE639" unicode="&#xe639;" 
d="M512 -128q-128 0 -217 95q-90 95 -90 238q0 54 10 103t33.5 99.5t41.5 82t53 87.5q28 45 42.5 70t36.5 66t38 81t27 83q2 6 5.5 10t8.5 6.5t11 2.5q20 0 25 -19q15 -56 41.5 -114.5t46 -92.5t56.5 -93q28 -45 42.5 -69t36 -66.5t32 -74.5t19 -75.5t8.5 -86.5
q0 -35 -6 -68t-17 -63t-28 -57.5t-38 -49.5q-43 -46 -99.5 -70.5t-118.5 -24.5zM512 788q-16 -43 -39.5 -88.5t-39.5 -73t-46 -76.5q-35 -55 -51.5 -84.5t-38.5 -76.5t-31.5 -91t-9.5 -93q0 -121 73.5 -201.5t182.5 -80.5t182.5 80.5t73.5 201.5q0 49 -9 93t-31 91t-39 76.5
t-51 84.5q-30 49 -46.5 76.5t-40 73t-39.5 88.5z" />
    <glyph glyph-name="uniE63A" unicode="&#xe63a;" 
d="M874 746q-48 48 -106 81.5t-123 51t-133 17.5q-103 0 -196 -38.5t-166 -111.5q-36 -36 -64 -78t-47 -88t-29 -95.5t-10 -100.5q0 -103 38.5 -196t111.5 -166t166 -111.5t196 -38.5q68 0 133 17.5t123 51t106 81.5q73 73 111.5 166t38.5 196q0 51 -10 100.5t-29 95.5
t-47 88t-64 78zM942 550q-7 12 -22 19.5t-46 18.5q-13 4 -22.5 12t-17 22t-11.5 24.5t-11 31.5q-6 18 -10 27.5t-11 24.5t-15.5 25.5t-19.5 19.5q18 -11 35 -24t32.5 -27.5t29.5 -30t27 -32.5t24 -35t20.5 -37t17.5 -39zM798 374q2 -17 2.5 -27t-2 -26t-11.5 -32t-24 -34
q-12 -13 -26 -50q-8 -22 -13.5 -33.5t-16.5 -26t-28 -21t-41 -6.5q-7 8 -12 37q-4 24 -10 90q-8 111 -21 160q-25 92 -84 112q-26 9 -55 9q-7 0 -14.5 -0.5t-12 -1t-12.5 -1.5q-17 -2 -24 -2q-8 0 -13 1.5t-13 10.5t-16 26q-11 30 -10 63.5t20.5 69t53.5 57.5q55 37 89 37
q27 0 69 -23q23 -12 42.5 -16t38.5 -4h10q5 0 12 1h16q9 0 16 -1.5t15 -7.5q9 -6 17 -19t12.5 -23.5t11.5 -31.5q6 -20 10 -30t12.5 -27.5t17.5 -27.5t23 -20.5t31 -16.5q6 -2 9.5 -3.5t10 -4t11.5 -3.5q-9 -9 -36 -34q-21 -18 -30 -27q-15 -13 -21.5 -30t-5.5 -32t2 -31z
M51 388q8 -1 18 -3q34 -8 48 -15q-3 -6 -12 -18q-28 -41 -22 -65q2 -14 0.5 -27.5t-6.5 -28.5q-3 9 -5.5 18t-5 18.5t-4.5 18.5l-4 20q-2 9 -3 18.5t-2 19.5t-1.5 20t-0.5 20v2v2zM512 -77q-129 0 -238 66.5t-168 176.5q40 76 27 132q0 5 14 24q6 8 9 12.5t7 13t5.5 14.5
t1 14.5t-4.5 15.5q-12 26 -80 41q-13 3 -31 6q14 113 78 206t164 146.5t216 53.5q119 0 223 -58q-11 5 -21.5 6.5t-21.5 1.5h-19q-13 -1 -19 -1q-9 0 -16 1t-18.5 4.5t-22.5 9.5q-53 28 -93 28q-49 0 -117 -45q-31 -20 -53.5 -50.5t-34.5 -66.5q-23 -73 5 -136
q30 -69 89 -69q5 0 10.5 0.5t9 0.5t10.5 1q22 3 33 3q10 0 19.5 -1.5t18.5 -4.5q34 -11 51 -77q12 -44 20 -151q6 -80 13 -110q6 -26 17 -41q16 -24 41 -24q23 0 42.5 5t36 14.5t29.5 24.5q10 11 18.5 26t12.5 24.5t10 26.5q11 28 16 34q27 30 39.5 61.5t11 53.5t-2.5 44
q-3 21 -1.5 31.5t9.5 18.5q4 3 7 5.5t6 5.5t6 5.5t5.5 5t5.5 4.5q32 29 41 39q22 24 18 44v1q27 -75 27 -156q0 -94 -36.5 -179t-98.5 -147t-147.5 -98.5t-178.5 -36.5z" />
    <glyph glyph-name="uniE63B" unicode="&#xe63b;" 
d="M896 794h-461q-15 0 -29.5 -6.5t-24.5 -16.5t-16.5 -24.5t-6.5 -29.5v-154q0 -10 7.5 -17.5t18.5 -7.5t18.5 7.5t7.5 17.5v154q0 10 7.5 17.5t17.5 7.5h387l-196 -84q-27 -11 -45 -38.5t-18 -56.5v-486h-128q-10 0 -17.5 7.5t-7.5 17.5v154q0 11 -7.5 18.5t-18.5 7.5
q-7 0 -13 -3.5t-9.5 -9.5t-3.5 -13v-154q0 -15 6.5 -29.5t16.5 -24.5t24.5 -16t29.5 -6h128v-77q0 -35 26 -52q13 -9 30 -9q13 0 27 6l264 113q27 12 45 39.5t18 55.5v615q0 15 -6 29.5t-16.5 24.5t-24.5 16.5t-30 6.5zM922 102q0 -13 -10 -27.5t-22 -19.5l-264 -114
q-7 -3 -9 -1q-1 0 -2 2.5t-1 6.5v614q0 14 10 28.5t22 19.5l273 117q1 -2 2 -5t1 -6v-615zM428 428l-154 153q-7 8 -18 8t-18 -8q-4 -3 -6 -8t-2 -10t2 -9.5t6 -8.5l110 -110h-322q-7 0 -13 -3.5t-9.5 -9t-3.5 -12.5q0 -6 2 -10.5t5.5 -8t8 -5.5t10.5 -2h322l-110 -110
q-8 -7 -8 -18t7.5 -18t18.5 -7t18 7l154 154q7 7 7 17.5t-7 18.5z" />
    <glyph glyph-name="uniE63C" unicode="&#xe63c;" 
d="M658 300q-5 5 -11.5 6.5t-13 0t-11.5 -6.5l-110 -110v629q0 11 -7.5 18.5t-18.5 7.5q-5 0 -9.5 -2t-8 -5.5t-5.5 -8.5t-2 -10v-629l-110 110q-5 5 -11.5 6.5t-13 0t-11.5 -6.5t-7 -11.5t0 -13.5t7 -11l153 -154q4 -4 8.5 -6t10.5 -2q10 1 18 8l153 154q8 7 8 17.5
t-8 18.5zM794 -128h-615q-32 0 -54.5 22.5t-22.5 54.5v512q0 32 22.5 54.5t54.5 22.5h205q11 0 18.5 -7.5t7.5 -18.5q0 -7 -3.5 -13t-9.5 -9.5t-13 -3.5h-205q-4 0 -8 -1t-7 -3.5t-5.5 -5.5t-3.5 -7t-1 -8v-512q0 -11 7.5 -18.5t17.5 -7.5h615q3 0 6.5 1t6 2.5t5 4t4 5.5
t2.5 6t1 7v512q0 5 -2 9.5t-5.5 8t-8 5.5t-9.5 2h-205q-11 0 -18.5 7.5t-7.5 18.5t7.5 18.5t18.5 7.5h205q31 0 53.5 -22.5t22.5 -54.5v-512q0 -11 -2.5 -21t-7.5 -18t-12 -15.5t-15.5 -12t-18.5 -7.5t-20 -3z" />
    <glyph glyph-name="uniE63D" unicode="&#xe63d;" 
d="M896 589h-819q-32 0 -54.5 -22.5t-22.5 -54.5v-461q0 -32 22.5 -54.5t54.5 -22.5h819q32 0 54.5 22.5t22.5 54.5v461q0 32 -22.5 54.5t-54.5 22.5zM896 538l4 -1l-385 -257q-11 -7 -28.5 -7t-28.5 7l-386 257q3 1 5 1h819zM896 26h-819q-11 0 -18.5 7.5t-7.5 17.5v439
l379 -252q24 -16 56 -16q33 0 57 16l379 252v-439q0 -5 -2 -9.5t-5.5 -8t-8.5 -5.5t-10 -2z" />
    <glyph glyph-name="uniE63E" unicode="&#xe63e;" 
d="M896 640h-768q-5 0 -10 2t-8.5 5.5t-5.5 8t-2 10.5q0 10 7.5 17.5t18.5 7.5h768q5 0 10 -2t8.5 -5.5t5.5 -8t2 -9.5q0 -11 -7.5 -18.5t-18.5 -7.5zM896 486h-410q-10 0 -17.5 7.5t-7.5 18.5t7.5 18.5t17.5 7.5h410q11 0 18.5 -7.5t7.5 -18.5t-7.5 -18.5t-18.5 -7.5z
M896 333h-410q-7 0 -12.5 3.5t-9 9t-3.5 12.5q0 6 2 10.5t5.5 8t8 5.5t9.5 2h410q7 0 13 -3.5t9.5 -9.5t3.5 -13q0 -3 -1 -6.5t-3 -5.5l-4 -6q-2 -2 -5 -3.5t-6.5 -2.5t-6.5 -1zM896 179h-410q-5 0 -9.5 2t-8 5.5t-5.5 8.5t-2 10q0 10 7.5 17.5t17.5 7.5h410q3 0 6.5 -0.5
t6.5 -2.5t5 -4t4 -5t3 -6.5t1 -6.5q0 -11 -7.5 -18.5t-18.5 -7.5zM896 26h-768q-11 0 -18.5 7.5t-7.5 18t7.5 18t18.5 7.5h768q7 0 13 -3.5t9.5 -9.5t3.5 -13q0 -10 -7.5 -17.5t-18.5 -7.5zM333 179q-9 1 -16 5l-204 154q-5 4 -8 9t-3 11q0 13 11 21l204 153q13 10 27 3
q7 -3 10.5 -9.5t3.5 -13.5v-307q0 -7 -3.5 -13.5t-10.5 -9.5q-5 -3 -11 -3zM171 358l136 -102v205z" />
    <glyph glyph-name="uniE63F" unicode="&#xe63f;" 
d="M794 -128h-615q-32 0 -54.5 22.5t-22.5 54.5v512q0 32 22.5 54.5t54.5 22.5h205q11 0 18.5 -7.5t7.5 -18.5q0 -7 -3.5 -13t-9.5 -9.5t-13 -3.5h-205q-4 0 -8 -1t-7 -3.5t-5.5 -5.5t-3.5 -7t-1 -8v-512q0 -11 7.5 -18.5t17.5 -7.5h615q3 0 6.5 1t6 2.5t5 4t4 5.5t2.5 6
t1 7v512q0 5 -2 9.5t-5.5 8t-8 5.5t-9.5 2h-205q-11 0 -18.5 7.5t-7.5 18.5t7.5 18.5t18.5 7.5h205q31 0 53.5 -22.5t22.5 -54.5v-512q0 -11 -2.5 -21t-7.5 -18t-12 -15.5t-15.5 -12t-18.5 -7.5t-20 -3zM658 709l-154 154q-7 7 -17.5 7t-18.5 -7l-153 -154q-4 -3 -6 -8
t-2 -10t2 -9.5t6 -8.5q7 -7 17.5 -7t18.5 7l110 110v-578q0 -11 7.5 -18.5t18 -7.5t18 7.5t7.5 18.5v578l110 -110q7 -7 18 -7q5 0 9.5 1.5t8.5 5.5q8 8 8 18.5t-8 17.5z" />
    <glyph glyph-name="uniE640" unicode="&#xe640;" horiz-adv-x="1025" 
d="M1017.5 375.5q-6.5 7.5 -20 21.5t-52 47.5t-79.5 62.5q-81 58 -160 91q-101 42 -194 42q-46 0 -95 -10.5t-99 -31.5q-79 -33 -160 -91q-26 -18 -51 -38.5t-41 -35t-31.5 -29.5t-20 -20t-7.5 -8q-7 -8 -7 -17.5t6.5 -17t20 -21.5t52 -48t79.5 -62q81 -58 160 -91
q101 -42 194 -42t194 42q39 16 79.5 39t80.5 52q26 18 51 38t41 35t31.5 29.5t20 20t7.5 8.5q7 8 7 17.5t-6.5 17zM644 566q73 -61 73 -156q0 -85 -60 -145t-145 -60t-145 60t-60 145q0 95 73 156q69 23 132 23t132 -23zM835 251q-172 -123 -323 -123t-323 123
q-69 48 -128 107q59 59 128 108q47 34 94 59q-6 -13 -11.5 -27t-8.5 -28.5t-5 -29.5t-2 -30q0 -106 75 -181t181 -75q69 0 128 34t93.5 93t34.5 129q0 20 -3 40t-9 38.5t-15 36.5q47 -25 94 -59q17 -12 34 -25t30 -24t26 -22.5t21 -20.5l17 -16q-60 -59 -128 -107z" />
    <glyph glyph-name="uniE641" unicode="&#xe641;" 
d="M914 607l-230 230q-3 3 -6 4.5t-6 2.5t-6 1h-487q-21 0 -38.5 -10.5t-28 -28t-10.5 -38.5v-819q0 -32 22.5 -54.5t54.5 -22.5h666q15 0 29.5 6t24.5 16.5t16.5 24.5t6.5 30v640q0 5 -2 9.5t-6 8.5zM860 589h-169q-5 0 -9.5 2t-8 5.5t-5.5 8t-2 9.5v169zM845 -77h-666
q-4 0 -8 1.5t-7 4t-5.5 5.5t-3.5 7t-1 8v819q0 11 7.5 18.5t17.5 7.5h435v-180q0 -31 22.5 -53.5t54.5 -22.5h179v-589q0 -5 -2 -10t-5.5 -8.5t-8 -5.5t-9.5 -2zM589 230h-128v128q0 11 -7.5 18.5t-18 7.5t-18 -7.5t-7.5 -18.5v-128h-128q-4 0 -7.5 -0.5t-6.5 -2.5l-4 -4
q-3 -2 -4.5 -5t-2.5 -6.5t-1 -6.5q0 -11 7.5 -18.5t18.5 -7.5h128v-128q0 -10 7.5 -17.5t18 -7.5t18 7.5t7.5 17.5v128h128q10 0 17.5 7.5t7.5 18t-7.5 18t-17.5 7.5z" />
    <glyph glyph-name="uniE642" unicode="&#xe642;" 
d="M914 607l-230 230q-3 3 -6 4.5t-6 2.5t-6 1h-487q-21 0 -38.5 -10.5t-28 -28t-10.5 -38.5v-819q0 -32 22.5 -54.5t54.5 -22.5h666q15 0 29.5 6t24.5 16.5t16.5 24.5t6.5 30v640q0 5 -2 9.5t-6 8.5zM860 589h-169q-5 0 -9.5 2t-8 5.5t-5.5 8t-2 9.5v169zM870 -51
q0 -11 -7.5 -18.5t-17.5 -7.5h-666q-4 0 -8 1.5t-7 4t-5.5 5.5t-3.5 7t-1 8v819q0 11 7.5 18.5t17.5 7.5h435v-180q0 -31 22.5 -53.5t54.5 -22.5h179v-589z" />
    <glyph glyph-name="uniE643" unicode="&#xe643;" 
d="M384 128h-4l-4 2q-2 0 -3 1q-5 2 -8 5.5t-5 8t-2 9.5v460q0 16 15 23q4 2 8.5 2.5t9.5 -0.5t8 -4l308 -231q10 -7 10 -20t-10 -20l-308 -231q-3 -2 -7 -3.5t-8 -1.5zM410 563v-358l239 179zM998 794h-972q-11 0 -18.5 -7.5t-7.5 -18.5v-768q0 -7 3.5 -13t9.5 -9.5
t13 -3.5h972q11 0 18.5 7.5t7.5 18.5v768q0 5 -2 10t-5.5 8.5t-8 5.5t-10.5 2zM154 333h-103v102h103v-102zM154 486h-103v103h103v-103zM51 282h103v-103h-103v103zM205 742h614v-716h-614v716zM870 435h103v-102h-103v102zM870 486v103h103v-103h-103zM870 282h103v-103
h-103v103zM973 640h-103v102h103v-102zM154 742v-102h-103v102h103zM51 128h103v-102h-103v102zM870 26v102h103v-102h-103z" />
    <glyph glyph-name="uniE644" unicode="&#xe644;" 
d="M76.5 -77q-10.5 0 -18 7.5t-7.5 18.5v768q0 7 3.5 13t9.5 9t13 3q10 0 17.5 -7.5t7.5 -17.5v-768q0 -11 -7.5 -18.5t-18 -7.5zM179 384q-8 0 -15 5q-9 6 -10.5 16.5t5.5 19.5q4 5 11 13.5t27.5 27.5t42.5 33.5t54 26.5t64 12q31 0 58.5 -5t54 -15t41.5 -17t41 -21
q29 -16 45 -23.5t42 -14.5t51 -7q40 0 77.5 17.5t67.5 47t52 60t41 66.5q-64 -37 -135 -37q-33 0 -62.5 7t-49.5 16t-43.5 26.5t-35 28.5t-32.5 32q-25 25 -39 37t-38 28t-50.5 23t-59.5 7q-32 0 -63 -10t-51 -22.5t-38 -27.5t-24 -22t-8 -11q-7 -8 -17.5 -9.5t-18.5 4.5
q-6 5 -8.5 11t-1.5 13t5 12q2 3 6 8t15.5 16.5t24.5 22t33 23t41 22t49 15.5t56 6q18 0 35.5 -2.5t32 -5.5t29.5 -9.5t25.5 -11.5t23.5 -14t21 -15.5t20 -17.5t18 -17t18 -17l25 -25q9 -9 25 -22t28.5 -20t30 -14.5t36.5 -10.5t42 -3q31 0 62 10t51.5 22t38 27.5t24 22.5
t8.5 10q4 5 9.5 7.5t11.5 2.5t11 -3q9 -4 12.5 -12.5t0.5 -17.5q-26 -79 -80 -160q-12 -18 -24 -33.5t-25 -29.5t-26 -26.5t-27 -22.5q-24 -17 -48.5 -29t-50 -18t-51.5 -6q-31 0 -63 8.5t-50 17t-49 25.5q-20 10 -30.5 15.5t-29.5 13.5t-33.5 12t-35 7t-42.5 3
q-24 0 -50 -9.5t-43.5 -22t-34 -27.5t-22.5 -22.5t-8 -10.5q-8 -10 -21 -10z" />
    <glyph glyph-name="uniE645" unicode="&#xe645;" 
d="M742 435h-102q-32 0 -54.5 22.5t-22.5 54.5v102q0 6 2 10.5t5.5 8t8.5 5.5t10 2t9.5 -2t8 -5.5t5.5 -8t2 -10.5v-102q0 -5 2 -10t5.5 -8.5t8.5 -5.5t10 -2h102q11 0 18.5 -7.5t7.5 -18t-7.5 -18t-18.5 -7.5zM333 435h-103q-7 0 -12.5 3.5t-9 9.5t-3.5 13q0 3 1 6.5
t2.5 6.5t3.5 5l6 4q2 2 5.5 2.5t6.5 0.5h103q5 0 9.5 2t8 5.5t5.5 8.5t2 10v102q0 6 2 10.5t5.5 8t8.5 5.5t10 2q3 0 6 -0.5t5.5 -2t4.5 -3t4 -4t3 -5t2 -5.5t1 -6v-102q0 -21 -10.5 -38.5t-28 -28t-38.5 -10.5zM589 77q-11 0 -18.5 7.5t-7.5 17.5v103q0 15 6 29.5
t16.5 24.5t24.5 16.5t30 6.5h102q11 0 18.5 -7.5t7.5 -18.5q0 -4 -1.5 -8t-3.5 -7t-5.5 -5.5t-7 -4t-8.5 -1.5h-102q-11 0 -18.5 -7.5t-7.5 -17.5v-103q0 -5 -2 -9.5t-5.5 -8t-8 -5.5t-9.5 -2zM384 77q-11 0 -18.5 7.5t-7.5 17.5v103q0 3 -0.5 6.5t-2.5 6.5t-4 5t-5 4
t-6.5 2.5t-6.5 0.5h-103q-10 0 -17.5 7.5t-7.5 18.5q0 3 1 6.5t2.5 6.5t3.5 5l6 4q2 2 5.5 3t6.5 1h103q21 0 38.5 -10.5t28 -28t10.5 -38.5v-103q0 -2 -0.5 -4.5t-1.5 -5t-2.5 -4.5t-3.5 -4l-4 -2q-2 -2 -4 -3t-4.5 -1.5t-5.5 -0.5z" />
    <glyph glyph-name="uniE646" unicode="&#xe646;" 
d="M947 538q-10 0 -17.5 7.5t-7.5 17.5v103q0 10 -7.5 17.5t-18.5 7.5h-102q-6 0 -10.5 2t-8 5.5t-5.5 8.5t-2 10t2 9.5t5.5 8t8 5.5t10.5 2h102q32 0 54.5 -22.5t22.5 -53.5v-103q0 -5 -2 -9.5t-5.5 -8t-8.5 -5.5t-10 -2zM26 538q-11 0 -18.5 7.5t-7.5 17.5v103
q0 15 6 29.5t16.5 24.5t24.5 16t30 6h102q4 0 8 -1t7 -3.5t5.5 -5.5t4 -7t1.5 -8q0 -11 -7.5 -18.5t-18.5 -7.5h-102q-7 0 -13 -3.5t-9.5 -9t-3.5 -12.5v-103q-6 -20 -25 -25zM179 -26h-102q-32 0 -54.5 22.5t-22.5 54.5v103q0 10 7.5 17.5t18 7.5t18 -7.5t7.5 -17.5v-103
q0 -10 7.5 -17.5t18.5 -7.5h102q4 0 8 -1.5t7 -4t5.5 -5.5t4 -7t1.5 -8q0 -7 -3.5 -13t-9.5 -9.5t-13 -3.5zM896 -26h-102q-11 0 -18.5 7.5t-7.5 18.5q0 5 2 10t5.5 8.5t8 5.5t10.5 2h102q11 0 18.5 7.5t7.5 17.5v103q0 4 1 8t3.5 7t5.5 5.5t7 3.5t8 1q11 0 18.5 -7.5
t7.5 -17.5v-103q0 -32 -22.5 -54.5t-54.5 -22.5z" />
    <glyph glyph-name="uniE647" unicode="&#xe647;" 
d="M831 727q-10 7 -23 13t-28 12t-33 11q-53 15 -120 23t-141 8q-152 0 -260 -31q-54 -16 -84 -36q-40 -27 -40 -61v-26q0 -33 33 -82l251 -376q9 -14 16.5 -38t7.5 -42v-153q0 -14 12 -22q6 -4 13 -4q6 0 12 3l102 51q14 7 14 23v102q0 18 7.5 42t16.5 38l251 376
q13 19 23 42.5t10 39.5v26q0 34 -40 61zM240 713q49 14 112.5 21.5t133.5 7.5q145 0 247 -29q76 -24 86 -47q0 -4 -6 -10.5t-27 -17.5t-53 -20q-20 -6 -42 -10.5t-46.5 -8t-50 -6t-53 -3.5t-55.5 -1q-145 0 -246 29q-32 9 -53 20t-27 17.5t-6 10.5t6 10.5t27 17t53 19.5z
M545 210q-9 -13 -16.5 -32t-12 -39t-4.5 -37v-86l-51 -26v112q0 25 -9.5 56.5t-23.5 51.5l-250 375q22 -9 48 -16q52 -15 119.5 -23t140.5 -8q152 0 261 31q27 7 48 16z" />
    <glyph glyph-name="uniE648" unicode="&#xe648;" 
d="M947 640h-153q25 34 25 77q0 53 -37.5 90.5t-90.5 37.5q-82 0 -160 -90q-26 -30 -45 -63q-8 16 -19.5 32t-24.5 31q-19 21 -39.5 39t-54.5 34.5t-66 16.5q-53 0 -90.5 -37.5t-37.5 -90.5q0 -14 3 -28t8.5 -26t13.5 -23h-153q-6 0 -10.5 -2t-8 -5.5t-5.5 -8t-2 -10.5v-153
q0 -11 7.5 -18.5t18.5 -7.5h25v-486q0 -32 22.5 -54.5t54.5 -22.5h717q15 0 29.5 6t24.5 16.5t16.5 24.5t6.5 30v486h25q11 0 18.5 7.5t7.5 18.5v153q0 6 -2 10.5t-5.5 8t-8.5 5.5t-10 2zM570 721q63 73 121 73q16 0 30 -6.5t24.5 -16.5t16.5 -24.5t6 -29.5q0 -13 -4 -24.5
t-11 -21t-16.5 -16.5t-21 -11t-24.5 -4h-173q2 3 3.5 7t3 7.5t4 7.5t4.5 8t5 8.5t5.5 8.5t5.5 8.5t6.5 8.5t7 8.5t7.5 8.5zM563 -77h-153v666h153v-666zM205 717q0 32 22.5 54.5t54.5 22.5q58 0 121 -73q36 -41 52 -81h-173q-32 0 -54.5 22.5t-22.5 54.5zM51 589h307v-103
h-307v103zM102 -51v486h256v-512h-230q-11 0 -18.5 7.5t-7.5 18.5zM870 -51q0 -11 -7.5 -18.5t-17.5 -7.5h-231v512h256v-486zM922 486h-308v103h308v-103z" />
    <glyph glyph-name="uniE649" unicode="&#xe649;" 
d="M955 536l-461 154q-8 3 -16 0l-460 -154q-18 -6 -18 -24q0 -8 5 -15t13 -9l136 -46v-135q0 -5 1.5 -9.5t5.5 -8.5q6 -5 15.5 -13.5t40 -27t65 -32.5t90 -25.5t114.5 -11.5q117 0 215 42q10 4 14 13.5t0 19.5t-14 14t-20 0q-88 -38 -195 -38q-120 0 -216 48q-22 10 -38 21
t-27 20v106l273 -91q4 -1 8 -1h4q3 0 5 1l273 91v-45q-23 -8 -37 -28t-14 -45q0 -15 5.5 -29t16 -24.5t24.5 -16.5l-45 -180q-3 -12 4.5 -21.5t19.5 -9.5h103q12 0 20 9.5t5 21.5l-45 180q13 6 23.5 16.5t16 24.5t5.5 29q0 25 -14 45t-37 28v62l136 46q6 1 9.5 5t6 9t2.5 10
q0 18 -18 24zM794 333q2 0 4.5 -0.5t5 -1.5t4.5 -2.5t3.5 -3t3 -4t2.5 -4.5t1.5 -4.5t0.5 -5.5q0 -5 -2 -9.5t-5.5 -8t-8 -5.5t-10 -2t-10 2t-8 5.5t-5.5 8t-2 9.5t2 10t5.5 8.5t8 5.5t10.5 2zM775 77l19 73l18 -73h-37zM792 487l-301 50q-5 1 -9 0.5t-7.5 -2.5t-6 -4.5
t-4.5 -6.5t-3 -8q-1 -7 1.5 -13t7.5 -10.5t12 -5.5l206 -34l-202 -68l-379 127l379 127l380 -127z" />
    <glyph glyph-name="uniE64E" unicode="&#xe64e;" horiz-adv-x="1025" 
d="M874 746q-73 73 -166 111.5t-196 38.5q-59 0 -116 -13.5t-108.5 -38.5t-96.5 -61t-81 -82v67q0 5 -2 10t-5.5 8.5t-8 5.5t-10.5 2q-3 0 -6 -1l-4 -2q-3 -1 -5.5 -3t-4 -4t-3 -4.5t-2 -5.5t-0.5 -6v-152q0 -6 2.5 -11t6.5 -9t10 -5q7 -2 15 1l146 49q10 4 14.5 13.5
t1 19.5t-13 14.5t-19.5 1.5l-76 -26q65 85 161.5 133t204.5 48q94 0 179 -36.5t147 -98.5t98.5 -147t36.5 -179t-36.5 -179t-98.5 -147t-147 -98.5t-179 -36.5q-127 0 -236 65.5t-170 177.5q-5 9 -15 12t-19.5 -2t-12.5 -15t2 -20q67 -124 188.5 -196.5t262.5 -72.5
q103 0 196.5 38.5t166 111t111 166t38.5 196.5t-38.5 196t-111.5 166zM512 358q-3 0 -6.5 1t-5.5 3l-231 128q-9 5 -12 15t2 19.5t15.5 12.5t19.5 -3l217 -120l269 171q6 4 12.5 4t12.5 -3t10 -9q6 -9 3.5 -19.5t-11.5 -15.5l-281 -180q-2 -1 -4.5 -2t-5.5 -1h-4v-1z" />
    <glyph glyph-name="uniE655" unicode="&#xe655;" 
d="M512 -128q-138 0 -256 69t-187 187t-69 256t69 256t187 187t256 69t256 -69t187 -187t69 -256t-69 -256t-187 -187t-256 -69zM512 832q-187 0 -317.5 -130.5t-130.5 -317.5t130.5 -317.5t317.5 -130.5t317.5 130.5t130.5 317.5t-130.5 317.5t-317.5 130.5zM736 160h-192
v160h96l-128 192l-128 -192h96v-160h-192q-53 0 -90.5 37.5t-37.5 90.5v64q0 60 56.5 110t135.5 50q0 67 46.5 113.5t113.5 46.5t113.5 -46.5t46.5 -113.5q79 0 135.5 -50t56.5 -110v-64q0 -53 -37.5 -90.5t-90.5 -37.5z" />
    <glyph glyph-name="uniE656" unicode="&#xe656;" 
d="M512 -128q-138 0 -256 69t-187 187t-69 256t69 256t187 187t256 69t256 -69t187 -187t69 -256t-69 -256t-187 -187t-256 -69zM512 832q-187 0 -317.5 -130.5t-130.5 -317.5t130.5 -317.5t317.5 -130.5t317.5 130.5t130.5 317.5t-130.5 317.5t-317.5 130.5zM640 64h-256
q-29 0 -46.5 17.5t-17.5 46.5v384q0 36 32 58v6v64q0 29 17.5 46.5t46.5 17.5h192q29 0 46.5 -17.5t17.5 -46.5v-64v-6q32 -22 32 -58v-384q0 -29 -17.5 -46.5t-46.5 -17.5zM486 621q0 8 -6.5 13.5t-12.5 5.5h-32q-19 0 -19 -19v-32q0 -13 19 -13h32q4 0 8 2t7.5 6.5
t3.5 10.5v26zM614 621q0 8 -6.5 13.5t-12.5 5.5h-32q-19 0 -19 -19v-32q0 -13 19 -13h32q4 0 8 2t7.5 6.5t3.5 10.5v26z" />
    <glyph glyph-name="uniE657" unicode="&#xe657;" 
d="M896 704h-768q-29 0 -46.5 -17.5t-17.5 -46.5v-512q0 -29 17.5 -46.5t46.5 -17.5h768q29 0 46.5 17.5t17.5 46.5v512q0 29 -17.5 46.5t-46.5 17.5zM896 192q0 -29 -17.5 -46.5t-46.5 -17.5h-640q-29 0 -46.5 17.5t-17.5 46.5v384q0 29 17.5 46.5t46.5 17.5h640
q29 0 46.5 -17.5t17.5 -46.5v-384zM429 410q19 28 19 57q0 39 -29 67.5t-67 28.5q-25 0 -47.5 -13t-35.5 -35.5t-13 -47.5q0 -29 19 -57q-25 -13 -44 -33.5t-29 -46.5t-10 -55q0 -25 33 -42.5t80 -21.5t94 0t80 21.5t33 42.5q0 43 -22.5 79t-60.5 56zM320 467q0 15 9 23.5
t23 8.5q7 0 13 -2t10 -6.5t6.5 -10.5t2.5 -13q0 -14 -9 -23t-23 -9q-10 0 -17 4t-11 11.5t-4 16.5zM256 275q0 39 29 67.5t67 28.5q25 0 47.5 -13t35.5 -35.5t13 -47.5q0 -12 -48 -17t-96 0t-48 17zM608 480h192q14 0 23 9t9 23t-9 23t-23 9h-192q-14 0 -23 -9t-9 -23t9 -23
t23 -9zM800 416h-128q-14 0 -23 -9t-9 -23t9 -23t23 -9h128q14 0 23 9t9 23t-9 23t-23 9zM800 288h-256q-14 0 -23 -9t-9 -23t9 -23t23 -9h256q14 0 23 9t9 23t-9 23t-23 9z" />
    <glyph glyph-name="uniE658" unicode="&#xe658;" horiz-adv-x="1025" 
d="M512 282q-6 0 -10 2l-486 204q-16 7 -16 24t16 24l486 204q10 5 20 0l486 -204q16 -7 16 -24t-16 -24l-486 -204q-5 -2 -10 -2zM92 512l420 -177l420 177l-420 177zM512 128q-6 0 -10 2l-486 205q-10 4 -14 14t0 19.5t14 13.5t20 0l476 -201l476 201q7 3 13.5 2t12 -5
t8.5 -11q3 -6 2 -12.5t-5 -12.5t-11 -8l-486 -205q-5 -2 -10 -2zM512 -26q-6 1 -10 2l-486 205q-10 4 -14 14t0 20t14 14t20 -1l476 -200l476 200q10 5 20 1t14 -14t0 -20t-14 -14l-486 -205q-2 -1 -4.5 -1.5t-5.5 -0.5z" />
    <glyph glyph-name="uniE659" unicode="&#xe659;" 
d="M768 832h-512q-28 0 -46 -19.5t-18 -44.5v-768q0 -29 17.5 -46.5t46.5 -17.5h512q29 0 46.5 17.5t17.5 46.5v768q0 25 -18 44.5t-46 19.5zM768 64q0 -29 -17.5 -46.5t-46.5 -17.5h-384q-29 0 -46.5 17.5t-17.5 46.5v640q0 29 17.5 46.5t46.5 17.5h384q29 0 46.5 -17.5
t17.5 -46.5v-640zM512 128zM448 128q0 26 19 45t45 19t45 -19t19 -45t-19 -45t-45 -19t-45 19t-19 45zM576 672q0 -14 -9 -23t-23 -9h-192q-11 0 -21.5 9.5t-10.5 22.5t10.5 22.5t21.5 9.5h192q14 0 23 -9t9 -23zM672 672zM640 672q0 13 9.5 22.5t22.5 9.5t22.5 -9.5
t9.5 -22.5t-9.5 -22.5t-22.5 -9.5t-22.5 9.5t-9.5 22.5z" />
    <glyph glyph-name="uniE65B" unicode="&#xe65b;" 
d="M640 32l-64 128h326q12 0 23 4.5t18.5 12t12 18.5t4.5 23v524q0 16 -7.5 29.5t-21 21t-29.5 7.5h-780q-16 0 -29.5 -7.5t-21 -21t-7.5 -29.5v-524q0 -24 17 -41t41 -17h326l-64 -128h-384v-64h1024v64h-384zM186 224q-12 0 -23 4.5t-18.5 12t-12 18.5t-4.5 23v396
q0 10 3 18.5t8 16t12.5 12.5t16 8t18.5 3h652q16 0 29.5 -7.5t21 -21t7.5 -29.5v-396q0 -8 -2 -15.5t-6 -14t-9 -11.5t-11.5 -9t-14 -6t-15.5 -2h-652z" />
    <glyph glyph-name="uniE65C" unicode="&#xe65c;" 
d="M320 512q-53 0 -90.5 -37.5t-37.5 -90.5t37.5 -90.5t90.5 -37.5t90.5 37.5t37.5 90.5t-37.5 90.5t-90.5 37.5zM320 320q-29 0 -46.5 17.5t-17.5 46.5t17.5 46.5t46.5 17.5t46.5 -17.5t17.5 -46.5t-17.5 -46.5t-46.5 -17.5zM704 512q-53 0 -90.5 -37.5t-37.5 -90.5
t37.5 -90.5t90.5 -37.5t90.5 37.5t37.5 90.5t-37.5 90.5t-90.5 37.5zM704 320q-29 0 -46.5 17.5t-17.5 46.5t17.5 46.5t46.5 17.5t46.5 -17.5t17.5 -46.5t-17.5 -46.5t-46.5 -17.5zM512 896q-138 0 -256 -69t-187 -187t-69 -256t69 -256t187 -187t256 -69t256 69t187 187
t69 256t-69 256t-187 187t-256 69zM512 -64q-187 0 -317.5 130.5t-130.5 317.5t130.5 317.5t317.5 130.5t317.5 -130.5t130.5 -317.5t-130.5 -317.5t-317.5 -130.5z" />
    <glyph glyph-name="uniE65D" unicode="&#xe65d;" 
d="M832 576q0 134 -93 227t-227 93t-227 -93t-93 -227q0 -76 34.5 -144t93.5 -112v-269q0 -13 13 -51q19 -58 68 -93t111 -35t111 35t68 93q13 26 13 51v269q59 44 93.5 112t34.5 144zM512 -64q-53 0 -90.5 37.5t-37.5 90.5h256q0 -53 -37.5 -90.5t-90.5 -37.5zM640 128
h-256v64h256v-64zM640 358v-102h-256v102q-58 29 -93 88t-35 130q0 106 75 181t181 75t181 -75t75 -181q0 -47 -16 -90t-45 -75.5t-67 -52.5z" />
    <glyph glyph-name="uniE65F" unicode="&#xe65f;" 
d="M454 390q21 -6 58 -6h15q5 0 13.5 0.5t15.5 2t14 3.5q6 -12 32 -25q3 -3 9.5 -6.5t9.5 -6.5q0 -105 45 -186q19 -38 57 -38h128v-64h-83h-512h-77v64h128q39 0 58 38q21 47 33 94t12 92q2 3 5.5 4.5t7 3.5t6.5 5q2 2 5.5 5t7 5.5t7 6.5t5.5 8zM512 896q-96 0 -163 -75
t-67 -181q0 -71 30.5 -127t84.5 -91q-39 -25 -58 -44v-26q0 -93 -38 -160h-160q-18 0 -24 -20q-2 -6 -2 -12v-128q0 -25 20 -31q3 -1 6 -1h115h512h109q10 0 17.5 9t7.5 23v128q0 14 -7.5 23t-17.5 9h-160q-39 67 -39 160v26q-5 3 -13.5 10t-15 11.5t-14.5 9.5t-14 7
q50 35 82.5 94t32.5 124q5 109 -61 185.5t-163 76.5zM512 448q-72 0 -122.5 55.5t-50.5 136.5q0 53 23 97.5t63 69.5t87 25q72 0 122.5 -55.5t50.5 -136.5t-50.5 -136.5t-122.5 -55.5zM909 -64h-173h-448h-173v-64h231h332h231v64z" />
    <glyph glyph-name="uniE661" unicode="&#xe661;" 
d="M858 0h-692q-67 0 -116.5 49.5t-49.5 116.5v90q0 106 75 181t181 75q0 106 75 181t181 75t181 -75t75 -181q106 0 181 -75t75 -181v-90q0 -67 -49.5 -116.5t-116.5 -49.5zM960 256q0 82 -55 137t-137 55h-6h-64q0 9 3 29.5t3 34.5q0 82 -55 137t-137 55t-137 -55
t-55 -137q0 -26 13 -64h-64h-13q-82 0 -137 -55t-55 -137v-64q0 -53 37.5 -90.5t90.5 -37.5h640q53 0 90.5 37.5t37.5 90.5v64z" />
    <glyph glyph-name="uniE662" unicode="&#xe662;" 
d="M928 0h-800v800q0 14 -9 23t-23 9t-23 -9t-9 -23v-832q0 -14 9 -23t23 -9h832q14 0 23 9t9 23t-9 23t-23 9zM243 64h96q8 0 15 3t12 8t9.5 11.5t6.5 14t2 14.5v218q0 13 -6 24.5t-16 19t-23 7.5h-96q-23 0 -37 -15.5t-14 -35.5v-211q0 -25 14 -41.5t37 -16.5zM256 301
q0 19 32 19t32 -19v-154q0 -19 -32 -19q-7 0 -13 1t-10 3.5t-6.5 6t-2.5 8.5v154zM499 64h96q19 0 35 16t16 35v410q-5 21 -19 36t-32 15h-96q-23 0 -37 -15.5t-14 -35.5v-403q0 -12 3.5 -22.5t10 -18.5t16 -12.5t21.5 -4.5zM512 493q0 19 32 19t32 -19v-346q0 -9 -8.5 -14
t-23.5 -5q-7 0 -13 1t-10 3.5t-6.5 6t-2.5 8.5v346zM755 64h96q19 0 35 16t16 35v538q-5 21 -19 36t-32 15h-96q-23 0 -37 -15.5t-14 -35.5v-531q0 -25 14 -41.5t37 -16.5zM768 621q0 19 32 19t32 -19v-474q0 -19 -32 -19q-31 1 -32 19v474z" />
    <glyph glyph-name="uniE663" unicode="&#xe663;" 
d="M704 256h-19l-96 -166q19 -29 19 -58q0 -38 -29 -67t-67 -29t-67 29t-29 67t29 67t67 29h19l96 166q-12 14 -13 32l-204 52q-7 -16 -20.5 -29.5t-32 -21t-37.5 -7.5q-38 0 -67 29t-29 67t29 67t67 29h19l96 166q-9 9 -14 25.5t-5 32.5q0 38 29 67t67 29t67 -29t29 -67
t-29 -67t-67 -29h-19l-96 -166q13 -13 13 -26l204 -58q10 17 23.5 29.5t30.5 20.5t36 8q38 0 67 -29t29 -67t-29 -67t-67 -29zM512 64q-14 0 -23 -9t-9 -23t9 -23t23 -9t23 9t9 23t-9 23t-23 9zM512 704q14 0 23 9t9 23t-9 23t-23 9t-23 -9t-9 -23t9 -23t23 -9zM320 448
q-14 0 -23 -9t-9 -23t9 -23t23 -9t23 9t9 23t-9 23t-23 9zM704 384q-19 0 -32 -26v-6q0 -14 9 -23t23 -9t23 9t9 23t-9 23t-23 9z" />
    <glyph glyph-name="uniE665" unicode="&#xe665;" 
d="M147 256h-96q-15 0 -27 -7.5t-18 -19t-6 -24.5v-211q0 -25 14 -41.5t37 -16.5h96q19 0 32 15.5t13 35.5v218q0 31 -25 46q-10 5 -20 5zM128 19q-2 -18 -32 -19q-32 0 -32 19v154q0 19 32 19q7 0 13 -1t10 -3.5t6.5 -6t2.5 -8.5v-154zM403 448h-96q-23 0 -37 -15.5
t-14 -35.5v-403q0 -17 6 -29.5t18 -20.5t27 -8h96q28 0 45 28q6 12 6 23v410q-5 21 -19 36t-32 15zM384 19q-2 -18 -32 -19q-32 0 -32 19v346q0 19 32 19t32 -19v-346zM909 512h-96q-23 0 -37 -15.5t-14 -35.5v-467q0 -25 13.5 -41.5t37.5 -16.5h96q19 0 35 16t16 35v474
q-5 21 -19 36t-32 15zM890 19q0 -19 -32 -19t-32 19v410q0 19 32 19t32 -19v-410zM659 320h-96q-23 0 -37 -15.5t-14 -35.5v-275q0 -25 14 -41.5t37 -16.5h96q19 0 32 15.5t13 35.5v282q0 20 -13 35.5t-32 15.5zM640 19q0 -19 -32 -19t-32 19v218q0 19 32 19q7 0 13 -1
t10 -3.5t6.5 -6t2.5 -8.5v-218zM64 307l288 250l205 -141q8 -12 19.5 -13t18.5 4t7 9l294 314v-58q0 -14 9 -23t23 -9t23 9t9 23v128q0 14 -9 23t-23 9h-128q-14 0 -23 -9t-9 -23t9 -23t23 -9h45l-269 -282l-205 141q-9 10 -22 10t-23 -10l-307 -269q-9 -9 -9 -25t9 -26
q10 -5 22.5 -5t22.5 5z" />
    <glyph glyph-name="uniE668" unicode="&#xe668;" 
d="M512 749l122 -243l262 -39l-192 -185l45 -263l-237 122l-237 -122l45 263l-192 185l262 39zM512 813q-38 0 -58 -39l-102 -204l-230 -39q-8 0 -15 -2t-13 -5.5t-11.5 -9t-10 -10.5t-8.5 -11q-10 -44 19 -64l167 -167l-39 -230q-3 -13 -0.5 -25t9.5 -22.5t17 -16.5
q25 -13 38 -13h5h4q2 0 3.5 0.5t3.5 0.5t3.5 0.5t4 1.5t4.5 1.5t4 2.5l205 108l205 -108q4 -5 11.5 -6t20.5 -1t38 13q15 10 22.5 27.5t3.5 36.5l-39 230l167 167q14 14 19 32t0 32q-9 34 -51 45l-231 32l-108 204q-20 39 -58 39z" />
    <glyph glyph-name="uniE669" unicode="&#xe669;" 
d="M896 768h-128v32q0 14 -9 23t-23 9t-23 -9t-9 -23v-32h-384v32q0 14 -9 23t-23 9t-23 -9t-9 -23v-32h-128q-28 0 -46 -16.5t-18 -41.5v-716q0 -25 18 -41.5t46 -16.5h768q28 0 46 16.5t18 41.5v716q0 16 -8 29.5t-22.5 21t-33.5 7.5zM192 704h64v-32q0 -14 9 -23t23 -9
t23 9t9 23v32h384v-32q0 -14 9 -23t23 -9t23 9t9 23v32h64q29 0 46.5 -17.5t17.5 -46.5v-64h-768v64q0 29 17.5 46.5t46.5 17.5zM832 0h-640q-29 0 -46.5 17.5t-17.5 46.5v448h768v-448q0 -29 -17.5 -46.5t-46.5 -17.5zM256 416h-64q-14 0 -23 -9t-9 -23t9 -23t23 -9h64
q14 0 23 9t9 23t-9 23t-23 9zM448 416h-64q-14 0 -23 -9t-9 -23t9 -23t23 -9h64q14 0 23 9t9 23t-9 23t-23 9zM640 416h-64q-14 0 -23 -9t-9 -23t9 -23t23 -9h64q14 0 23 9t9 23t-9 23t-23 9zM832 416h-64q-14 0 -23 -9t-9 -23t9 -23t23 -9h64q14 0 23 9t9 23t-9 23t-23 9z
M256 288h-64q-14 0 -23 -9t-9 -23t9 -23t23 -9h64q14 0 23 9t9 23t-9 23t-23 9zM448 288h-64q-14 0 -23 -9t-9 -23t9 -23t23 -9h64q14 0 23 9t9 23t-9 23t-23 9zM640 288h-64q-14 0 -23 -9t-9 -23t9 -23t23 -9h64q14 0 23 9t9 23t-9 23t-23 9zM832 288h-64q-14 0 -23 -9
t-9 -23t9 -23t23 -9h64q14 0 23 9t9 23t-9 23t-23 9zM256 160h-64q-14 0 -23 -9t-9 -23t9 -23t23 -9h64q14 0 23 9t9 23t-9 23t-23 9zM448 160h-64q-14 0 -23 -9t-9 -23t9 -23t23 -9h64q14 0 23 9t9 23t-9 23t-23 9zM640 160h-64q-14 0 -23 -9t-9 -23t9 -23t23 -9h64
q14 0 23 9t9 23t-9 23t-23 9zM832 160h-64q-14 0 -23 -9t-9 -23t9 -23t23 -9h64q14 0 23 9t9 23t-9 23t-23 9z" />
    <glyph glyph-name="uniE66B" unicode="&#xe66b;" 
d="M832 -128h-640q-53 0 -90.5 37.5t-37.5 90.5v768q0 53 37.5 90.5t90.5 37.5h640q53 0 90.5 -37.5t37.5 -90.5v-768q0 -53 -37.5 -90.5t-90.5 -37.5zM896 704q0 53 -37.5 90.5t-90.5 37.5h-512q-53 0 -90.5 -37.5t-37.5 -90.5v-640q0 -53 37.5 -90.5t90.5 -37.5h512
q53 0 90.5 37.5t37.5 90.5v640zM256 192h512v-64h-512v64zM256 384h512v-64h-512v64zM256 576h512v-64h-512v64z" />
    <glyph glyph-name="uniE66C" unicode="&#xe66c;" 
d="M896 -128h-768q-53 0 -90.5 37.5t-37.5 90.5v768q0 53 37.5 90.5t90.5 37.5h768q53 0 90.5 -37.5t37.5 -90.5v-768q0 -53 -37.5 -90.5t-90.5 -37.5zM960 704q0 53 -37.5 90.5t-90.5 37.5h-640q-53 0 -90.5 -37.5t-37.5 -90.5v-640q0 -53 37.5 -90.5t90.5 -37.5h640
q53 0 90.5 37.5t37.5 90.5v640zM384 128h448v-64h-448v64zM384 320h448v-64h-448v64zM384 512h448v-64h-448v64zM384 704h448v-64h-448v64zM192 128h64v-64h-64v64zM192 320h64v-64h-64v64zM192 512h64v-64h-64v64zM192 704h64v-64h-64v64z" />
    <glyph glyph-name="uniE66D" unicode="&#xe66d;" 
d="M928 256h-109l77 -77q29 -29 29 -67t-29 -67l-45 -45q-29 -29 -67 -29t-67 29l-77 77v-109q0 -38 -29 -67t-67 -29h-64q-38 0 -67 29t-29 67v109l-77 -77q-14 -14 -31.5 -21.5t-35.5 -7.5t-35.5 7.5t-31.5 21.5l-45 45q-29 29 -29 67t29 67l77 77h-109q-38 0 -67 29
t-29 67v64q0 38 29 67t67 29h109l-77 77q-14 14 -21.5 31.5t-7.5 35.5t7.5 35.5t21.5 31.5l45 45q29 29 67 29t67 -29l77 -77v109q0 38 29 67t67 29h64q38 0 67 -29t29 -67v-109l77 77q29 29 67 29t67 -29l45 -45q29 -29 29 -67t-29 -67l-77 -77h109q38 0 67 -29t29 -67v-64
q0 -38 -29 -67t-67 -29zM960 416q0 14 -9 23t-23 9h-102q-7 38 -45 115l70 71q7 6 9 14t0 16t-9 14l-45 45q-9 10 -22 10t-22 -10l-71 -70q-77 38 -115 45v102q0 14 -9 23t-23 9h-64q-14 0 -23 -9t-9 -23v-102q-38 -7 -115 -45l-71 70q-9 10 -22 10t-22 -10l-45 -45
q-5 -4 -7.5 -10t-2.5 -12t2.5 -12t7.5 -10l70 -71q-38 -77 -45 -115h-102q-14 0 -23 -9t-9 -23v-64q0 -14 9 -23t23 -9h102q7 -38 45 -115l-70 -71q-7 -6 -9 -14t0 -16t9 -14l45 -45q9 -10 22 -10t22 10l71 70q28 -17 56 -28.5t59 -16.5v-102q0 -14 9 -23t23 -9h64
q14 0 23 9t9 23v102q11 2 23.5 6t22 7.5t24 10t22.5 10.5t23 11l71 -70q6 -7 14 -9t16 0t14 9l45 45q10 9 10 22t-10 22l-70 71q37 62 45 115h102q14 0 23 9t9 23v64zM512 256q-53 0 -90.5 37.5t-37.5 90.5t37.5 90.5t90.5 37.5t90.5 -37.5t37.5 -90.5t-37.5 -90.5
t-90.5 -37.5zM512 448q-29 0 -46.5 -17.5t-17.5 -46.5t17.5 -46.5t46.5 -17.5t46.5 17.5t17.5 46.5t-17.5 46.5t-46.5 17.5z" />
    <glyph glyph-name="uniE66E" unicode="&#xe66e;" 
d="M512 -128q-187 0 -317.5 130.5t-130.5 317.5q0 151 89 268t231 161v-71q-112 -39 -184 -137t-72 -221q0 -158 113 -271t271 -113t271 113t113 271q0 123 -72 221t-184 137v71q142 -44 231 -161t89 -268q0 -74 -22.5 -142.5t-63.5 -123.5t-96 -96t-123.5 -63.5
t-142.5 -22.5zM544 384h-64q-14 0 -23 9t-9 23v448q0 14 9 23t23 9h64q14 0 23 -9t9 -23v-448q0 -14 -9 -23t-23 -9z" />
    <glyph glyph-name="uniE66F" unicode="&#xe66f;" 
d="M960 -128h-896q-29 0 -46.5 17.5t-17.5 46.5v640q0 29 17.5 46.5t46.5 17.5h128h64q0 106 75 181t181 75t181 -75t75 -181h192q29 0 46.5 -17.5t17.5 -46.5v-640q0 -29 -17.5 -46.5t-46.5 -17.5zM512 832q-82 0 -137 -55t-55 -137h384q0 82 -55 137t-137 55zM960 512
q0 29 -17.5 46.5t-46.5 17.5h-128h-6h-64h-365h-64h-13h-64h-64q-29 0 -46.5 -17.5t-17.5 -46.5v-512q0 -29 17.5 -46.5t46.5 -17.5h768q29 0 46.5 17.5t17.5 46.5v512zM403 6l-275 276l45 44l230 -230l410 410l45 -45z" />
    <glyph glyph-name="uniE670" unicode="&#xe670;" 
d="M512 467l-256 205v-115l256 -205l256 205v115zM256 416v-115l256 -205l256 205v115l-256 -205z" />
    <glyph glyph-name="uniE671" unicode="&#xe671;" 
d="M768 96v115l-256 205l-256 -205v-115l256 205zM512 557l256 -205v115l-256 205l-256 -205v-115z" />
    <glyph glyph-name="uniE672" unicode="&#xe672;" 
d="M544 429l-13 19q-7 6 -19 6q-13 0 -19 -6l-13 -13l-205 -205q-19 -19 0 -38l13 -13q19 -19 38 0l186 186l186 -186q19 -19 38 0l13 13q19 19 0 38zM512 896q-138 0 -256 -69t-187 -187t-69 -256t69 -256t187 -187t256 -69t256 69t187 187t69 256t-69 256t-187 187
t-256 69zM512 -64q-187 0 -317.5 130.5t-130.5 317.5t130.5 317.5t317.5 130.5t317.5 -130.5t130.5 -317.5t-130.5 -317.5t-317.5 -130.5zM256 608v-64h512v64h-512z" />
    <glyph glyph-name="uniE673" unicode="&#xe673;" 
d="M149 747q-73 -73 -111 -168.5t-38 -192.5t38 -192.5t111 -168.5q32 -32 70 -58t78 -44t82.5 -29.5t86.5 -15t87.5 0t86 15t83 29.5t78 44t70.5 58q73 73 111 168.5t38 192.5t-38 192.5t-111 168.5q-98 98 -228.5 132.5t-262 0t-231.5 -132.5zM826 70q-88 -88 -202 -119
t-228.5 0t-202.5 119t-119 202t0 228.5t119 202.5t202.5 119t228.5 0t202 -119q66 -66 100 -150t34 -169t-34 -167.5t-100 -146.5zM545 415v256q0 14 -9 23t-23 9q-3 0 -6 -0.5t-6 -1.5t-5 -3l-4 -2l-4 -4t-3 -4l-2 -6q-1 -2 -1.5 -5t-0.5 -6v-256h-256q-17 0 -24 -20
q-1 -6 -1 -12q0 -14 8.5 -23t23.5 -9h255v-255q0 -7 2.5 -13t6.5 -10.5t10 -6.5t13 -2t13 2t10.5 6.5t6.5 10.5t2 13v255h256q7 0 13 2.5t10 6.5t6.5 10t2.5 13q0 15 -9 23.5t-23 8.5h-262zM545 415z" />
    <glyph glyph-name="uniE674" unicode="&#xe674;" 
d="M512 852q-130 0 -240.5 -64.5t-175 -175t-64.5 -240.5t64.5 -240.5t175 -175t240.5 -64.5t240.5 64.5t175 175t64.5 240.5t-64.5 240.5t-175 175t-240.5 64.5zM512 -72q-184 0 -314 130t-130 314t130 314t314 130t314 -130t130 -314t-130 -314t-314 -130zM296 516v-90
l216 -198l216 192v96l-216 -192z" />
    <glyph glyph-name="uniE675" unicode="&#xe675;" 
d="M992 372q0 130 -64.5 240.5t-175 175t-240.5 64.5t-240.5 -64.5t-175 -175t-64.5 -240.5t64.5 -240.5t175 -175t240.5 -64.5t240.5 64.5t175 175t64.5 240.5zM956 372q0 -184 -130 -314t-314 -130t-314 130t-130 314t130 314t314 130t314 -130t130 -314zM512 420
l216 -192v96l-216 192l-216 -192v-90z" />
    <glyph glyph-name="uniE676" unicode="&#xe676;" 
d="M320 0l307 384l-307 384h77l307 -384l-307 -384h-77z" />
    <glyph glyph-name="uniE677" unicode="&#xe677;" 
d="M627 0l-307 384l307 384h77l-307 -384l307 -384h-77z" />
    <glyph glyph-name="uniE678" unicode="&#xe678;" 
d="M870 282q-31 0 -57 17q-10 -30 -36.5 -49.5t-59.5 -19.5q-11 0 -21 2.5t-19 6t-17 9.5q-11 -31 -37.5 -50t-59.5 -19q-7 0 -13.5 1t-13 3t-12.5 4.5t-12 5.5v-167q0 -43 -30 -73t-72.5 -30t-72.5 30t-30 73v377l-69 -119q-20 -38 -61 -49q-40 -11 -75 10t-46.5 62t7.5 79
q48 99 136 274q72 144 156 203q47 33 80 33h256q17 0 32.5 -2.5t30.5 -7t29 -11.5t28 -16q52 -37 88 -105q74 -136 74 -370q0 -42 -30 -72t-73 -30zM854 730q-61 115 -163 115h-255q-2 0 -4 -0.5t-7.5 -2t-11.5 -4.5t-15 -8t-18 -12q-71 -53 -135 -181q-62 -124 -136 -274
h-1q-9 -19 -3 -41t23 -33q17 -10 35 -5q7 2 12.5 5.5t10 8.5t8.5 11v0l80 139q24 45 54 37t30 -59v-400q0 -22 15 -37t36.5 -15t36.5 15t15 37v332q0 6 2 10.5t5.5 8t8 5.5t9.5 2q7 0 13 -3.5t9.5 -9.5t3.5 -13v-76q0 -22 15 -37t36 -15t36 15t15 37v76q0 11 7.5 18.5
t18.5 7.5q7 0 13 -3.5t9.5 -9.5t3.5 -13v-25q0 -21 15 -36t36 -15q8 0 16 2.5t14 7t11 11t7.5 14.5t2.5 16v77q0 10 7.5 17.5t18 7.5t18 -7.5t7.5 -17.5v-26q0 -21 15 -36t36.5 -15t36.5 15t15 36q0 221 -68 346z" />
    <glyph glyph-name="uniE679" unicode="&#xe679;" 
d="M410 26q0 31 17 57q-30 10 -49.5 36.5t-19.5 59.5q0 31 18 57q-31 11 -50 37.5t-19 59.5q0 27 14 51h-167q-43 0 -73 30t-30 72.5t30 72.5t73 30h377l-119 69q-38 20 -49 61q-11 40 10 75t62 46.5t79 -7.5q99 -48 274 -136q72 -36 123 -75.5t80 -80.5q33 -47 33 -80v-256
q0 -66 -37 -120q-37 -52 -105 -88q-136 -74 -370 -74q-42 0 -72 30t-30 73zM858 42q115 61 115 163v255q0 3 -1.5 8.5t-8 19.5t-17.5 28q-23 30 -66.5 65t-114.5 70q-197 99 -273 136h-1v1q-19 9 -41 3t-33 -23q-5 -8 -6 -17.5t1 -17.5q1 -4 2.5 -7t3 -5.5t3.5 -5t4.5 -5
t5.5 -4.5l6 -4v0l139 -80q45 -24 37 -54t-59 -30h-400q-6 0 -11 -1.5t-9.5 -3t-8.5 -4.5t-7.5 -6.5t-6.5 -7.5t-4.5 -8.5t-3 -9.5t-1.5 -11q0 -21 15 -36t37 -15h332q11 0 18.5 -7.5t7.5 -18t-7.5 -18t-18.5 -7.5h-76q-14 0 -26 -7t-19 -18.5t-7 -25.5t7 -26t19 -18.5
t26 -6.5h76q11 0 18.5 -7.5t7.5 -18.5t-7.5 -18.5t-18.5 -7.5h-25q-21 0 -36 -15t-15 -36t15 -36t36 -15h77q10 0 17.5 -7.5t7.5 -18t-7.5 -18t-17.5 -7.5h-26q-21 0 -36 -15t-15 -36.5t15 -36.5t36 -15q221 0 346 68z" />
    <glyph glyph-name="uniE67A" unicode="&#xe67a;" 
d="M794 -77q-7 0 -13 3l-153 84q-10 5 -13 15.5t3 19.5q2 4 6 7.5t8.5 4.5t10 1t9.5 -3l108 -59l-9 51q-1 7 1.5 13.5t7.5 10.5t12 5q4 1 8 0.5t8 -2.5t6.5 -4.5t4.5 -6.5t3 -8l17 -102q1 -7 -2 -14t-9 -11q-6 -5 -15 -5h1zM759 128q-9 0 -16 6t-9 15l-17 103q0 4 0.5 8
t2 7.5t4.5 6.5l52 51q3 4 8 6t9.5 2t9.5 -2t9 -6q5 -5 6.5 -11.5t0 -13t-6.5 -11.5l-42 -42l15 -89q1 -11 -5 -19.5t-16 -10.5h-2h-3zM896 384q-11 0 -18.5 7.5t-7.5 18t8 18.5l16 16l-105 17q-10 2 -16 10.5t-5 19.5q1 5 4 9t7 7t9 4t10 1l153 -26q16 -3 20.5 -17.5
t-6.5 -25.5l-51 -52q-8 -7 -18 -7zM691 478h-2h-2l-51 9q-2 0 -4 0.5t-4 1.5t-3.5 2.5t-3 2.5t-2.5 3l-2 4l-51 102q-5 9 -1.5 19.5t13 15t19.5 1t15 -12.5l45 -91l38 -6q5 -1 8.5 -3t6 -4.5t4.5 -6.5t2.5 -7.5t-0.5 -8.5q-1 -9 -8 -15t-17 -6zM230 -77q-8 0 -14 5
q-14 9 -11 25l49 294l-195 196q-11 11 -6.5 26t20.5 17l294 49l122 244q7 15 23 15t23 -15l25 -51q3 -6 3 -12.5t-4 -12.5t-10 -9q-7 -3 -13.5 -2.5t-12 4t-8.5 9.5l-3 6l-105 -210q-2 -4 -5 -7t-6.5 -5t-7.5 -2l-258 -43l170 -170q4 -4 6 -10t1 -12l-43 -256l236 129
q12 7 24 0l26 -14q9 -5 12 -15.5t-2 -19.5q-3 -6 -9 -9.5t-12.5 -3.5t-13.5 3l-13 7l-269 -147l-6 -2q-3 -1 -7 -1z" />
    <glyph glyph-name="uniE67B" unicode="&#xe67b;" 
d="M870 486q-31 0 -57 -17q-7 20 -21 35.5t-33.5 24.5t-41.5 9q-31 0 -57 -18q-11 31 -37.5 50t-59.5 19q-9 0 -18 -1.5t-17 -5t-16 -7.5v167q0 43 -30 73t-72.5 30t-72.5 -30t-30 -73v-377l-69 119q-20 38 -61 49q-40 11 -75 -10t-46.5 -62t7.5 -79q48 -99 136 -274
q72 -144 156 -203q47 -33 80 -33h256q22 0 42.5 4t40 12.5t37.5 20.5q52 37 88 105q74 136 74 370q0 42 -30 72t-73 30zM854 38q-61 -115 -163 -115h-255q-23 2 -56 27q-71 53 -135 181q-99 197 -136 273v1h-1q-9 19 -3 41t23 33q17 10 35 5q5 -2 9.5 -4t8.5 -5t7 -7t6 -9v0
l80 -139q24 -45 54 -37t30 59v400q0 22 15 37t36.5 15t36.5 -15t15 -37v-332q0 -6 2 -10.5t5.5 -8t8 -5.5t9.5 -2q7 0 13 3.5t9.5 9.5t3.5 13v76q0 22 15 37t36 15q9 0 16.5 -3t14 -7.5t11 -11t7 -14t2.5 -16.5v-76q0 -11 7.5 -18.5t18.5 -7.5t18.5 7.5t7.5 18.5v25
q0 14 6.5 26t18.5 18.5t26 6.5q21 0 36 -15t15 -36v-77q0 -10 7.5 -17.5t18.5 -7.5q7 0 12.5 3.5t9 9t3.5 12.5v26q0 21 15 36t36 15q14 0 26 -7t19 -18.5t7 -25.5q0 -221 -68 -346z" />
    <glyph glyph-name="uniE67C" unicode="&#xe67c;" horiz-adv-x="1025" 
d="M873 215q-5 3 -12 6q61 48 61 112q0 36 -19.5 68.5t-56 59.5t-87.5 46q9 28 9 56q0 49 -24 90t-65.5 65t-89.5 24q-77 0 -77 52q0 15 13.5 31t26.5 24q7 5 10 13t0 16q-5 18 -24 18q-40 0 -80 -8.5t-77.5 -24.5t-69.5 -39q-16 -12 -30 -25t-25.5 -27t-20.5 -29
q-30 -49 -30 -103q0 -22 3 -44q-66 -32 -107 -81q-24 -29 -37 -62.5t-13 -68.5q0 -42 18 -84q-69 -67 -69 -146q0 -59 38 -111.5t110 -92.5q141 -78 338 -78q203 0 335 48q152 55 152 157q-2 82 -100 138zM803 -32q-123 -45 -317 -45q-184 0 -313 72q-39 22 -66.5 47.5
t-41.5 53.5t-14 58q0 52 45 100q2 -4 4 -7l4 -6l6 -6q2 -3 5 -6q63 -72 160 -100q3 -1 7 -1q19 0 24 18q3 11 -2 20t-15 12q-80 23 -133.5 82t-53.5 124q0 47 32 89.5t88 72.5q13 -37 35.5 -69t53 -55.5t64.5 -36.5q3 0 5 -0.5t4 -0.5q8 0 14.5 4.5t9.5 12.5q4 10 -0.5 19.5
t-15.5 13.5q-38 13 -69 44.5t-49 74.5t-18 87q0 80 85 142q29 21 62.5 35t69.5 21q-3 -5 -5 -10t-3.5 -10.5t-2.5 -11.5t-1 -12q0 -16 4 -30t13.5 -27.5t24 -23.5t36.5 -16t50 -6q53 0 90.5 -37.5t37.5 -90.5q0 -10 -1.5 -20t-5.5 -20q-15 4 -32 7.5t-34 6.5
q-7 1 -13.5 -1.5t-10.5 -7.5t-5 -12q-2 -10 4 -19t17 -10q108 -18 174 -63q25 -18 42.5 -41t17.5 -50q0 -25 -16 -47t-49 -41q-71 26 -162 36q-11 2 -19 -5t-9 -17q-1 -5 0.5 -10t4.5 -9t7.5 -6.5t9.5 -2.5q132 -16 211 -61q19 -11 34.5 -23t27.5 -31t12 -39
q0 -37 -34.5 -64t-84.5 -45z" />
    <glyph glyph-name="uniE67D" unicode="&#xe67d;" 
d="M486.5 282q-10.5 0 -18 7.5t-7.5 17.5v461q0 11 7.5 18.5t18 7.5t18 -7.5t7.5 -18.5v-461q0 -10 -7.5 -17.5t-18 -7.5zM486 -77q-77 0 -147 29t-124.5 83.5t-83.5 124.5t-29 147q0 129 78 232q76 100 197 136q4 1 8 1t7.5 -1.5t7 -3.5t5.5 -5.5t4 -7.5q3 -10 -2.5 -19.5
t-15.5 -12.5q-105 -31 -171 -120t-66 -199q0 -90 44.5 -166.5t121 -121.5t167 -45t167 45t121 121.5t44.5 166.5q0 110 -66.5 199t-171.5 120q-10 3 -15 12.5t-2 19.5t12.5 15t19.5 2q120 -36 197 -136q77 -103 77 -232q0 -51 -13 -99.5t-38 -92t-61 -79.5q-55 -55 -125 -84
t-147 -29z" />
    <glyph glyph-name="uniE67E" unicode="&#xe67e;" 
d="M947 691h-77v128q0 32 -22.5 54.5t-53.5 22.5h-564q-31 0 -53.5 -22.5t-22.5 -54.5v-128h-77q-32 0 -54.5 -22.5t-22.5 -54.5v-460q0 -32 22.5 -54.5t54.5 -22.5h77v-128q0 -32 22.5 -54.5t53.5 -22.5h564q15 0 29.5 6t24.5 16.5t16 24.5t6 30v128h77q32 0 54.5 22.5
t22.5 54.5v460q0 32 -22.5 54.5t-54.5 22.5zM205 819q0 5 2 10t5.5 8.5t8 5.5t9.5 2h564q10 0 17.5 -7.5t7.5 -18.5v-128h-614v128zM794 -77h-564q-4 0 -8 1.5t-7 4t-5.5 5.5t-3.5 7t-1 8v333h614v-333q0 -7 -3.5 -13t-9 -9.5t-12.5 -3.5zM973 154q0 -6 -2 -10.5t-5.5 -8
t-8.5 -5.5t-10 -2h-77v154h26q11 0 18.5 7.5t7.5 18t-7.5 18t-18.5 7.5h-768q-11 0 -18.5 -7.5t-7.5 -18t7.5 -18t18.5 -7.5h26v-154h-77q-11 0 -18.5 7.5t-7.5 18.5v460q0 7 3.5 13t9.5 9.5t13 3.5h870q11 0 18.5 -7.5t7.5 -18.5v-460zM742 179h-460q-3 0 -5 0.5t-4 1.5
l-4 2q-2 1 -4 2.5t-3 3t-2.5 3.5t-1.5 4l-2 4v5q0 10 7.5 17.5t18.5 7.5h460q4 0 7.5 -0.5t6.5 -2.5l4 -4q3 -2 4.5 -5t2.5 -6.5t1 -6.5q0 -5 -2 -10t-5.5 -8.5t-8 -5.5t-10.5 -2zM742 77h-460q-5 0 -8.5 1t-7 3.5t-5.5 5.5t-3.5 7t-1.5 8q0 11 7.5 18.5t18.5 7.5h460
q11 0 18.5 -7.5t7.5 -18.5q0 -5 -2 -9.5t-5.5 -8t-8 -5.5t-10.5 -2zM742 -26h-460q-5 0 -8.5 1.5t-7 4t-5.5 5.5t-3.5 7t-1.5 8q0 11 7.5 18.5t18.5 7.5h460q11 0 18.5 -7.5t7.5 -18.5q0 -5 -2 -10t-5.5 -8.5t-8 -5.5t-10.5 -2zM845 435q-32 0 -54.5 22.5t-22.5 54.5
t22.5 54.5t54.5 22.5t54.5 -22.5t22.5 -54.5t-22.5 -54.5t-54.5 -22.5zM844.5 538q-10.5 0 -18 -7.5t-7.5 -18.5t7.5 -18.5t18 -7.5t18 7.5t7.5 18.5t-7.5 18.5t-18 7.5z" />
    <glyph glyph-name="uniE67F" unicode="&#xe67f;" 
d="M922 548l-271 271q-15 15 -36.5 15t-36.5 -15l-15 -15q-5 -5 -10 -12.5t-8.5 -16t-5 -17t-1.5 -16.5v-51q0 -5 -3.5 -13.5t-7.5 -11.5l-143 -143q-2 -2 -5 -4t-7 -3.5t-7.5 -2.5t-6.5 -1h-51q-36 0 -62 -26l-15 -15q-15 -15 -15 -36t15 -36l80 -80l-254 -329
q-3 -5 -4.5 -11t0.5 -12t7 -11q3 -3 8 -5t10 -2q8 0 15 5l330 254l79 -80q15 -15 36.5 -15t36.5 15l15 15q5 6 10 13.5t8.5 15.5t5 16.5t1.5 16.5v51q0 15 11 26l143 143q4 4 12 7t14 3h51q36 0 62 26l15 15q15 15 15 36t-15 36zM217 114l129 169l39 -39zM870 497
q-3 -4 -11.5 -7.5t-13.5 -3.5h-51q-16 0 -33.5 -7t-28.5 -18l-143 -143q-26 -26 -26 -62v-51q0 -6 -3.5 -14t-6.5 -12l-15 -15v0l-271 271l15 15q10 11 25 11h51q37 0 62 25l143 143q6 6 10.5 13.5t8 15.5t5.5 16.5t2 16.5v51q0 6 3.5 14t6.5 12l15 15l271 -271z" />
    <glyph glyph-name="uniE683" unicode="&#xe683;" 
d="M486.5 -128q-97.5 0 -186.5 37t-157.5 105.5t-105.5 157.5t-37 186q0 65 16.5 126.5t48.5 117t77 100.5q69 69 158 106t186 37q39 0 77 -6t74 -18t70 -29t65 -39.5t58 -50.5q69 -69 106 -157.5t37 -186t-37 -186.5t-106 -157.5t-157.5 -105.5t-186 -37zM486 794
q-59 0 -115 -16t-104 -44t-88 -68t-68 -88t-44 -104.5t-16 -115.5q0 -88 34.5 -168.5t93 -139t139 -93t169 -34.5t169 34.5t139 93t93 139t34.5 168.5q0 167 -112 291q-107 120 -266 141q-29 4 -58 4zM333 486q-32 0 -54.5 22.5t-22.5 54.5q0 16 6 30t16.5 24.5t24.5 16.5
t29.5 6t30 -6t24.5 -16.5t16.5 -24.5t6.5 -30q0 -8 -2 -15.5t-4.5 -14t-7 -13t-9.5 -11.5t-11.5 -9.5t-13 -7t-14 -4.5t-15.5 -2zM333 589q-5 0 -10 -2t-8.5 -5.5t-5.5 -8.5t-2 -10t2 -9.5t5.5 -8t8.5 -5.5t10 -2q3 0 6 0.5t5.5 1.5t4.5 3l4 4q2 2 3 4.5t1.5 5.5t0.5 6
q0 5 -2 10t-5.5 8.5t-8 5.5t-9.5 2zM640 486q-32 0 -54.5 22.5t-22.5 54.5q0 13 4 24.5t11 21t16.5 16.5t21.5 11t24 4q16 0 30 -6t24.5 -16.5t16.5 -24.5t6 -30q0 -32 -22.5 -54.5t-54.5 -22.5zM640 589q-5 0 -10 -2t-8.5 -5.5t-5.5 -8.5t-2 -10q0 -10 7.5 -17.5t18.5 -7.5
q5 0 10 2t8.5 5.5t5.5 8t2 9.5q0 11 -7.5 18.5t-18.5 7.5zM282 128q-9 0 -16 5q-8 6 -9.5 16.5t4.5 19.5q39 52 97 82q60 31 128 31q34 0 66 -8t62 -23q29 -15 53.5 -35.5t44.5 -46.5q2 -3 3 -6t1.5 -6.5t0 -6.5t-1.5 -6t-3.5 -6t-4.5 -5q-9 -6 -19.5 -4.5t-16.5 9.5
q-10 13 -20.5 24t-22.5 20t-25 17t-27 13.5t-28.5 9.5t-30 6t-31.5 2q-54 0 -102.5 -24t-81.5 -68q-2 -3 -5.5 -5.5t-7.5 -3.5t-7 -1z" />
    <glyph glyph-name="uniE684" unicode="&#xe684;" 
d="M896 794h-819q-21 0 -38.5 -10.5t-28 -28t-10.5 -38.5v-512q0 -32 22.5 -54.5t54.5 -22.5h384v-102h-179q-5 0 -8.5 -1.5t-7 -4t-5.5 -5.5t-3.5 -7t-1.5 -8q0 -11 7.5 -18.5t18.5 -7.5h409q11 0 18.5 7.5t7.5 18.5t-7.5 18.5t-18.5 7.5h-179v102h384q32 0 54.5 22.5
t22.5 54.5v512q0 15 -6 29.5t-16.5 24.5t-24.5 16.5t-30 6.5zM922 205q0 -4 -1.5 -8t-4 -7t-5.5 -5.5t-7 -4t-8 -1.5h-819q-11 0 -18.5 7.5t-7.5 18.5v512q0 10 7.5 17.5t18.5 7.5h819q11 0 18.5 -7.5t7.5 -17.5v-512z" />
    <glyph glyph-name="uniE685" unicode="&#xe685;" 
d="M282 128h-205q-32 0 -54.5 22.5t-22.5 54.5v614q0 21 10.5 38.5t28 28t38.5 10.5h717q31 0 53.5 -22.5t22.5 -54.5v-358q0 -7 -3 -13t-9 -9.5t-13 -3.5q-11 0 -18.5 7.5t-7.5 18.5v358q0 11 -7.5 18.5t-17.5 7.5h-717q-11 0 -18.5 -7.5t-7.5 -18.5v-614q0 -11 7.5 -18.5
t18.5 -7.5h205q10 0 17.5 -7.5t7.5 -18t-7.5 -18t-17.5 -7.5zM666 -128q-18 0 -24 16l-87 217l-152 -173q-11 -13 -28 -7q-7 3 -12 9.5t-5 14.5v768q0 16 16 23q7 3 14.5 2t12.5 -6l563 -512q13 -12 7 -28q-1 -3 -3 -5l-2 -4q-2 -2 -4 -3.5t-4.5 -2.5t-5 -1.5t-5.5 -0.5
h-218l88 -221q4 -10 0 -19.5t-14 -13.5l-128 -51q-2 -1 -4.5 -1.5t-4.5 -0.5zM563 179h4q7 -1 12 -5.5t8 -10.5l93 -232l80 32l-93 232q-5 13 3 24q4 5 9.5 8t11.5 3h190l-471 429v-642l134 154q8 8 19 8z" />
    <glyph glyph-name="uniE686" unicode="&#xe686;" 
d="M691 -77h-409q-32 0 -54.5 22.5t-22.5 54.5v476l-120 -40q-4 -1 -8 -1t-8 1.5t-7 3.5t-5.5 5.5t-3.5 7.5l-52 153q-1 5 -1 9.5t2 8.5t5 7.5t7 5.5l307 154q6 3 13 2.5t12.5 -4t8.5 -9t3 -12.5q0 -53 37.5 -90.5t90.5 -37.5q13 0 26 2.5t24.5 7.5t21.5 12t18.5 15.5t16 19
t12 22t7 24t2.5 25.5q0 7 3.5 12.5t9.5 9.5q12 7 24 1l308 -154q8 -4 11.5 -13t0.5 -18l-51 -153q-3 -10 -12.5 -15t-19.5 -2l-120 40v-476q0 -21 -10.5 -38.5t-28 -28t-38.5 -10.5zM230 538q9 0 15 -5q11 -8 11 -21v-512q0 -11 7.5 -18.5t18.5 -7.5h409q11 0 18.5 7.5
t7.5 18.5v512q0 13 10.5 20.5t22.5 3.5l130 -43l36 108l-255 128q-13 -61 -62 -100.5t-113 -39.5q-21 0 -41 5t-38 13.5t-33.5 21.5t-27.5 28t-21 33.5t-13 38.5l-255 -128l36 -108l129 43q2 1 3 1t2.5 0.5t3.5 0.5h-1z" />
    <glyph glyph-name="uniE687" unicode="&#xe687;" 
d="M538 -26h-52q-10 0 -17.5 7.5t-7.5 18.5q0 7 3.5 13t9 9.5t12.5 3.5h52q10 0 17.5 -7.5t7.5 -18.5q0 -5 -2 -10t-5.5 -8.5t-8 -5.5t-9.5 -2zM742 -128h-460q-32 0 -54.5 22.5t-22.5 54.5v870q0 16 6 30t16.5 24.5t24.5 16.5t30 6h460q16 0 30 -6t24.5 -16.5t16.5 -24.5
t6 -30v-870q0 -21 -10 -38.5t-28 -28t-39 -10.5zM282 845q-6 0 -10.5 -2t-8 -5.5t-5.5 -8.5t-2 -10v-870q0 -11 7.5 -18.5t18.5 -7.5h460q3 0 6 1t5.5 2t5 3t4 4t3 4.5t2 5.5t0.5 6v870q0 11 -7.5 18.5t-18.5 7.5h-460zM691 77h-358q-11 0 -18.5 7.5t-7.5 17.5v666
q0 11 7.5 18.5t18.5 7.5h358q11 0 18.5 -7.5t7.5 -18.5v-666q0 -10 -7.5 -17.5t-18.5 -7.5zM358 128h308v614h-308v-614z" />
    <glyph glyph-name="uniE688" unicode="&#xe688;" 
d="M486.5 -128q-97.5 0 -186.5 37t-157.5 105.5t-105.5 157.5t-37 186q0 65 16.5 126.5t48.5 117t77 100.5q69 69 158 106t186 37q39 0 77 -6t74 -18t70 -29t65 -39.5t58 -50.5q69 -69 106 -157.5t37 -186t-37 -186.5t-106 -157.5t-157.5 -105.5t-186 -37zM486 794
q-59 0 -115 -16t-104 -44t-88 -68t-68 -88t-44 -104.5t-16 -115.5q0 -88 34.5 -168.5t93 -139t139 -93t169 -34.5t169 34.5t139 93t93 139t34.5 168.5q0 167 -112 291q-107 120 -266 141q-29 4 -58 4zM333 486q-32 0 -54.5 22.5t-22.5 54.5q0 16 6 30t16.5 24.5t24.5 16.5
t29.5 6t30 -6t24.5 -16.5t16.5 -24.5t6.5 -30q0 -8 -2 -15.5t-4.5 -14t-7 -13t-9.5 -11.5t-11.5 -9.5t-13 -7t-14 -4.5t-15.5 -2zM333 589q-5 0 -10 -2t-8.5 -5.5t-5.5 -8.5t-2 -10t2 -9.5t5.5 -8t8.5 -5.5t10 -2q3 0 6 0.5t5.5 1.5t4.5 3l4 4q2 2 3 4.5t1.5 5.5t0.5 6
q0 5 -2 10t-5.5 8.5t-8 5.5t-9.5 2zM640 486q-32 0 -54.5 22.5t-22.5 54.5q0 13 4 24.5t11 21t16.5 16.5t21.5 11t24 4q16 0 30 -6t24.5 -16.5t16.5 -24.5t6 -30q0 -32 -22.5 -54.5t-54.5 -22.5zM640 589q-5 0 -10 -2t-8.5 -5.5t-5.5 -8.5t-2 -10q0 -10 7.5 -17.5t18.5 -7.5
q5 0 10 2t8.5 5.5t5.5 8t2 9.5q0 11 -7.5 18.5t-18.5 7.5zM486.5 26q-90.5 0 -167 44.5t-121 121t-44.5 166.5q0 6 2 10.5t5.5 8t8 5.5t9.5 2q7 0 13 -3.5t9.5 -9.5t3.5 -13q0 -116 82.5 -198.5t199 -82.5t199 82.5t82.5 198.5q0 6 2 10.5t5.5 8t8 5.5t10.5 2q2 0 4.5 -0.5
t5 -1.5t4.5 -2.5t3.5 -3t3 -3.5t2.5 -4.5t1.5 -5t0.5 -5.5q0 -90 -44.5 -166.5t-121 -121t-167 -44.5z" />
    <glyph glyph-name="uniE689" unicode="&#xe689;" horiz-adv-x="1025" 
d="M453 146q-5 5 -11.5 7t-13 0t-11.5 -7l-161 -161v885q0 11 -7.5 18.5t-18 7.5t-18 -7.5t-7.5 -18.5v-885l-161 161q-5 5 -11.5 7t-13.5 0t-11 -7q-8 -7 -8 -18t8 -18l204 -205q8 -7 18.5 -7t18.5 7l204 205q8 7 8 18t-8 18zM1022 522l-154 358q-1 3 -3 5.5t-4 4.5
t-4.5 3.5t-5.5 2t-6 0.5q-8 0 -14.5 -4.5t-9.5 -11.5l-153 -358q-5 -10 -1 -19.5t14 -14t20 -0.5t14 14l59 138h142l59 -138q6 -16 23 -16q6 0 10 2q10 5 14 14.5t0 19.5zM796 691l49 114l49 -114h-98zM947 -128h-205q-6 0 -12 3.5t-9.5 9.5t-3.5 12.5t3 12.5l183 320h-161
q-10 0 -17.5 7.5t-7.5 18.5t7.5 18.5t17.5 7.5h205q15 0 22.5 -13t-0.5 -26l-183 -320h161q7 0 13 -3.5t9.5 -9t3.5 -12.5q0 -11 -7.5 -18.5t-18.5 -7.5z" />
    <glyph glyph-name="uniE68A" unicode="&#xe68a;" 
d="M453 146q-5 5 -11.5 7t-13 0t-11.5 -7l-161 -161v885q0 11 -7.5 18.5t-18 7.5t-18 -7.5t-7.5 -18.5v-885l-161 161q-5 5 -11.5 7t-13 0t-11.5 -7q-8 -7 -8 -18t8 -18l204 -205q8 -7 18.5 -7t18.5 7l204 205q8 7 8 18t-8 18zM691 640h-102q-11 0 -18.5 7.5t-7.5 18.5v102
q0 11 7.5 18.5t18.5 7.5h102q11 0 18.5 -7.5t7.5 -18.5v-102q0 -11 -7.5 -18.5t-18.5 -7.5zM614 691h52v51h-52v-51zM794 435h-205q-11 0 -18.5 7.5t-7.5 18.5v102q0 11 7.5 18.5t18.5 7.5h205q10 0 17.5 -7.5t7.5 -18.5v-102q0 -11 -7.5 -18.5t-17.5 -7.5zM614 486h154v52
h-154v-52zM896 230h-307q-5 0 -10 2t-8.5 5.5t-5.5 8.5t-2 10v102q0 11 7.5 18.5t18.5 7.5h307q11 0 18.5 -7.5t7.5 -18.5v-102q0 -11 -7.5 -18.5t-18.5 -7.5zM614 282h256v51h-256v-51zM998 26h-409q-11 0 -18.5 7.5t-7.5 17.5v103q0 10 7.5 17.5t18.5 7.5h409
q11 0 18.5 -7.5t7.5 -17.5v-103q0 -10 -7.5 -17.5t-18.5 -7.5zM614 77h359v51h-359v-51z" />
    <glyph glyph-name="uniE68B" unicode="&#xe68b;" 
d="M230.5 179q-10.5 0 -18 -7.5t-7.5 -17.5q-34 25 -77 25q-53 0 -90.5 -37.5t-37.5 -90.5t37.5 -90.5t90.5 -37.5q43 0 77 26q0 -11 7.5 -18.5t18 -7.5t18 7.5t7.5 18.5v205q0 10 -7.5 17.5t-18 7.5zM128 -26q-32 0 -54.5 22.5t-22.5 54.5t22.5 54.5t54.5 22.5t54.5 -22.5
t22.5 -54.5t-22.5 -54.5t-54.5 -22.5zM435 179q-14 0 -27.5 -3t-26 -8.5t-23.5 -13.5v204q0 11 -7.5 18.5t-18 7.5t-18 -7.5t-7.5 -18.5v-409q0 -11 7.5 -18.5t18.5 -7.5q4 0 8 1.5t7 4t5.5 5.5t3.5 7t1 8q34 -26 77 -26q53 0 90.5 37.5t37.5 90.5t-37.5 90.5t-90.5 37.5z
M435 -26q-32 0 -54.5 22.5t-22.5 54.5t22.5 54.5t54.5 22.5t54.5 -22.5t22.5 -54.5t-22.5 -54.5t-54.5 -22.5zM742 -77q-53 0 -90.5 37.5t-37.5 90.5t37.5 90.5t90.5 37.5q35 0 64 -17q10 -5 12.5 -15.5t-3 -19.5t-15.5 -12t-19 3q-4 2 -7.5 3.5t-7.5 2.5l-8 2q-4 1 -8 1.5
t-8 0.5q-15 0 -29.5 -6t-24.5 -16.5t-16 -24.5t-6 -29.5t6 -30t16 -24.5t24.5 -16.5t29.5 -6.5q21 0 39 11q9 5 19 2t15.5 -12t3 -19t-12.5 -16q-14 -8 -30.5 -12.5t-33.5 -4.5zM589 358q-11 0 -18 8l-154 153q-4 4 -5.5 9t-1.5 9.5t1.5 9.5t5.5 9q8 7 18.5 7t17.5 -7
l136 -136l340 340q8 8 18.5 8t18 -7.5t7.5 -18t-8 -18.5l-358 -358q-8 -8 -18 -8z" />
    <glyph glyph-name="uniE68C" unicode="&#xe68c;" 
d="M794 -77q-7 0 -13 3l-269 147l-269 -147q-7 -3 -14 -2.5t-13 4.5q-14 9 -11 25l49 294l-195 196q-11 11 -6.5 26t20.5 17l294 49l122 244q7 15 23 15t23 -15l122 -244l294 -49q16 -2 21 -17q2 -7 0 -14t-7 -12l-195 -196l49 -294q2 -16 -11 -25q-6 -5 -14 -5zM512 128h4
l4 -2q2 0 4 -1l236 -129l-43 256v4v4q0 2 1 4t1.5 3.5t2 3.5t2.5 3l170 170l-258 43q-2 0 -4 0.5t-4 1.5t-3.5 2.5t-3 2.5t-2.5 3l-2 4l-105 210l-105 -210q-2 -4 -5 -7t-6.5 -5t-7.5 -2l-258 -43l170 -170q4 -4 6 -10t1 -12l-43 -256l236 129q5 3 12 3z" />
    <glyph glyph-name="uniE68D" unicode="&#xe68d;" 
d="M512 896q-138 0 -256 -69t-187 -187t-69 -256t69 -256t187 -187t256 -69t256 69t187 187t69 256t-69 256t-187 187t-256 69zM512 -64q-122 0 -225.5 61t-163 164t-59.5 223q0 182 133 315t315 133q187 0 317.5 -130.5t130.5 -317.5t-130.5 -317.5t-317.5 -130.5zM736 410
h-192v268q0 12 -4.5 22t-11.5 16t-16.5 10t-18.5 4q-16 0 -27.5 -7.5t-17.5 -19.5t-6 -25v-326q0 -24 13.5 -37.5t37.5 -13.5h249q24 0 38 13.5t14 37.5t-17 41t-41 17z" />
    <glyph glyph-name="uniE68E" unicode="&#xe68e;" 
d="M691 307q-10 0 -18 8q-4 3 -5.5 8t-1.5 10t1.5 9.5t5.5 8.5l157 157q40 40 40 97q0 11 -1.5 21.5t-5 21t-8 20t-11 18t-14.5 16.5q-20 20 -45.5 30t-51.5 10t-51.5 -10t-45.5 -30l-157 -157q-8 -7 -18.5 -7t-17.5 7q-4 4 -6 8.5t-2 9.5t2 10t6 8l157 157q55 55 133 55
t133 -55q27 -26 41.5 -60.5t14.5 -72.5q0 -78 -56 -133l-157 -157q-7 -8 -18 -8zM240 -77q-78 0 -133.5 55.5t-55.5 133.5t55 133l157 157q8 8 18.5 8t18 -7.5t7.5 -18.5t-7 -18l-157 -157q-41 -40 -41 -97t40.5 -97.5t97.5 -40.5t97 41l157 157q1 1 3 2.5t4 2.5t4.5 1.5
t4.5 0.5h4q2 0 4.5 -0.5t4.5 -1.5t3.5 -2.5t3.5 -2.5q8 -8 8 -18.5t-8 -18.5l-157 -157q-55 -55 -133 -55zM282 538q-11 0 -19 7l-102 102q-4 4 -5.5 9t-1.5 9.5t1.5 9.5t5.5 9q8 7 18.5 7t17.5 -7l103 -103q5 -5 6.5 -11.5t0 -13t-6.5 -11.5q-8 -7 -18 -7zM384 589
q-5 0 -10 2t-8.5 5.5t-5.5 8t-2 9.5v154q0 11 7.5 18.5t18.5 7.5t18.5 -7.5t7.5 -18.5v-154q0 -10 -7.5 -17.5t-18.5 -7.5zM230 435h-153q-7 0 -13 3.5t-9.5 9.5t-3.5 13q0 5 2 9.5t5.5 8t8.5 5.5t10 2h153q7 0 13 -3t9.5 -9t3.5 -13q0 -4 -1 -7t-2.5 -6t-4 -5.5t-5 -4
t-6 -2.5t-7.5 -1zM794 26q-11 0 -19 7l-102 102q-4 4 -5.5 9t-1.5 9.5t1.5 9.5t5.5 9q8 7 18.5 7t17.5 -7l103 -103q3 -3 5 -8t2 -10t-2 -9.5t-5 -8.5q-8 -7 -18 -7zM896 230h-154q-10 0 -17.5 7.5t-7.5 18.5q0 5 2 10t5.5 8.5t8 5.5t9.5 2h154q11 0 18.5 -7.5t7.5 -18.5
q0 -4 -1.5 -8t-4 -7t-5.5 -5.5t-7 -4t-8 -1.5zM589 -77q-7 0 -13 3.5t-9.5 9.5t-3.5 13v153q0 11 7.5 18.5t18 7.5t18 -7.5t7.5 -18.5v-153q0 -11 -7.5 -18.5t-17.5 -7.5z" />
    <glyph glyph-name="uniE68F" unicode="&#xe68f;" 
d="M922 410v51q0 6 -3 11l-103 205q-7 14 -22 14h-615q-16 0 -23 -14l-102 -205q-3 -5 -3 -11v-51q0 -64 51 -103v-333h-25q-11 0 -18.5 -7.5t-7.5 -18t7.5 -18t18.5 -7.5h819q5 0 10 2t8.5 5.5t5.5 8.5t2 10t-2 9.5t-5.5 8t-8.5 5.5t-10 2h-26v333q52 39 52 103zM589 333
q-21 0 -38.5 10t-28 28t-10.5 39v25h154v-25q0 -32 -22.5 -54.5t-54.5 -22.5zM102 410v25h154v-25q0 -21 -10.5 -39t-28 -28t-38.5 -10q-32 0 -54.5 22.5t-22.5 54.5zM461 640v-154h-147l39 154h108zM620 640l38 -154h-146v154h108zM307 435h154v-25q0 -32 -22.5 -54.5
t-54.5 -22.5t-54.5 22.5t-22.5 54.5v25zM717 435h153v-25q0 -16 -6 -30t-16 -24.5t-24.5 -16.5t-30 -6t-29.5 6t-24.5 16.5t-16.5 24.5t-6 30v25zM855 486h-144l-38 154h105zM195 640h105l-38 -154h-144zM154 284q6 -1 12.5 -1.5t12.5 -0.5q21 0 40 6t35 17.5t28 27.5
q38 -51 102 -51q21 0 40 6t35 17.5t27 27.5q30 -39 77 -49v-310h-409v310zM819 -26h-205v310q48 10 77 49q18 -24 45 -37.5t58 -13.5q6 0 12.5 0.5t12.5 1.5v-310zM717 154q0 -6 -2 -10.5t-5.5 -8t-8.5 -5.5t-10 -2q-3 0 -6.5 1t-6.5 2.5t-5 4.5l-4 4q-2 3 -2.5 6.5
t-0.5 7.5q0 5 2 9.5t5.5 8t8 5.5t9.5 2q4 0 7 -1t6 -2.5t5.5 -4t4 -5t2.5 -6t1 -6.5zM230 128q-10 0 -17.5 7.5t-7.5 18t7 18.5l51 51q5 5 12 6.5t13.5 0t11.5 -6.5t6.5 -11.5t0 -13t-6.5 -11.5l-52 -52q-7 -7 -18 -7zM282 26q-11 0 -19 7q-4 5 -6 11.5t0 13t6 11.5l154 154
q8 7 18.5 7t18 -7.5t7.5 -18t-8 -17.5l-153 -154q-4 -4 -8.5 -5.5t-9.5 -1.5zM435 26q-11 0 -18 7q-7 8 -7 18.5t7 17.5l51 51q8 8 18.5 8t17.5 -8q5 -4 7 -11t0 -13.5t-7 -11.5l-51 -51q-2 -2 -5 -4t-6.5 -2.5t-6.5 -0.5z" />
    <glyph glyph-name="uniE690" unicode="&#xe690;" 
d="M845 794h-717q-11 0 -18.5 -7.5t-7.5 -18.5t7.5 -18.5t18.5 -7.5h333v-230q0 -7 3.5 -13t9 -9.5t12.5 -3.5q11 0 18.5 7.5t7.5 18.5v230h333q10 0 17.5 7.5t7.5 18.5t-7.5 18.5t-17.5 7.5zM486.5 -26q-10.5 0 -18 7.5t-7.5 18.5v205q0 3 1 6.5t2.5 6.5t3.5 5l6 4
q2 2 5.5 2.5t6.5 0.5q11 0 18.5 -7.5t7.5 -17.5v-205q0 -11 -7.5 -18.5t-18 -7.5zM947 282h-921q-11 0 -18.5 7.5t-7.5 17.5v103q0 10 7.5 17.5t18.5 7.5h921q11 0 18.5 -7.5t7.5 -17.5v-103q0 -10 -7.5 -17.5t-18.5 -7.5zM51 333h871v51h-871v-51z" />
    </font>
</defs>
</svg>
